<?xml version="1.0" encoding="UTF-8" standalone="no"?>
<!DOCTYPE svg PUBLIC "-//W3C//DTD SVG 1.1//EN"
 "http://www.w3.org/Graphics/SVG/1.1/DTD/svg11.dtd">
<!-- Generated by graphviz version 15.0.0 (20260523.1842)
 -->
<!-- Title: G Pages: 1 -->
<svg width="1316pt" height="2594pt"
 viewBox="0.00 0.00 1316.00 2594.00" xmlns="http://www.w3.org/2000/svg" xmlns:xlink="http://www.w3.org/1999/xlink">
<g id="graph0" class="graph" transform="scale(1 1) rotate(0) translate(4 2590)">
<title>G</title>
<polygon fill="white" stroke="none" points="-4,4 -4,-2590 1312.03,-2590 1312.03,4 -4,4"/>
<g id="clust1" class="cluster">
<title>cluster_01</title>
<polygon fill="none" stroke="black" points="61.1,-2447 61.1,-2578 459.97,-2578 459.97,-2447 61.1,-2447"/>
<text xml:space="preserve" text-anchor="middle" x="260.54" y="-2560.7" font-family="Times,serif" font-size="14.00">Legend</text>
</g>
<!-- Address -->
<g id="node1" class="node">
<title>Address</title>
<ellipse fill="lightgray" stroke="lightgray" cx="424.97" cy="-18" rx="41.12" ry="18"/>
<text xml:space="preserve" text-anchor="middle" x="424.97" y="-12.95" font-family="Times,serif" font-size="14.00">Address</text>
</g>
<!-- Address&#45;&gt;Address -->
<g id="edge1" class="edge">
<title>Address&#45;&gt;Address</title>
<path fill="none" stroke="green" d="M389.98,-27.95C363.54,-39.93 375.21,-54 424.97,-54 466.96,-54 481.83,-43.98 469.57,-33.66"/>
<polygon fill="green" stroke="green" points="471.65,-30.83 461.27,-28.72 468.07,-36.84 471.65,-30.83"/>
</g>
<!-- AddressUpgradeable -->
<g id="node2" class="node">
<title>AddressUpgradeable</title>
<ellipse fill="lightgray" stroke="lightgray" cx="424.97" cy="-261" rx="88.2" ry="18"/>
<text xml:space="preserve" text-anchor="middle" x="424.97" y="-255.95" font-family="Times,serif" font-size="14.00">AddressUpgradeable</text>
</g>
<!-- AddressUpgradeable&#45;&gt;AddressUpgradeable -->
<g id="edge2" class="edge">
<title>AddressUpgradeable&#45;&gt;AddressUpgradeable</title>
<path fill="none" stroke="green" d="M380.08,-276.92C368.37,-287.15 383.33,-297 424.97,-297 450.35,-297 465.82,-293.34 471.38,-288.17"/>
<polygon fill="green" stroke="green" points="474.87,-287.86 470.07,-278.42 467.93,-288.79 474.87,-287.86"/>
</g>
<!-- Clones -->
<g id="node3" class="node">
<title>Clones</title>
<ellipse fill="lightgray" stroke="lightgray" cx="916.32" cy="-1039" rx="36.51" ry="18"/>
<text xml:space="preserve" text-anchor="middle" x="916.32" y="-1033.95" font-family="Times,serif" font-size="14.00">Clones</text>
</g>
<!-- Clones&#45;&gt;Clones -->
<g id="edge3" class="edge">
<title>Clones&#45;&gt;Clones</title>
<path fill="none" stroke="green" d="M888.23,-1050.99C873.2,-1062.47 882.57,-1075 916.32,-1075 941.1,-1075 952.73,-1068.24 951.21,-1060.1"/>
<polygon fill="green" stroke="green" points="954.09,-1058.11 945.3,-1052.2 948.49,-1062.3 954.09,-1058.11"/>
</g>
<!-- Context -->
<g id="node4" class="node">
<title>Context</title>
<ellipse fill="lightgray" stroke="lightgray" cx="424.97" cy="-1033" rx="40.09" ry="18"/>
<text xml:space="preserve" text-anchor="middle" x="424.97" y="-1027.95" font-family="Times,serif" font-size="14.00">Context</text>
</g>
<!-- Create2 -->
<g id="node5" class="node">
<title>Create2</title>
<ellipse fill="lightgray" stroke="lightgray" cx="1251.56" cy="-536" rx="39.58" ry="18"/>
<text xml:space="preserve" text-anchor="middle" x="1251.56" y="-530.95" font-family="Times,serif" font-size="14.00">Create2</text>
</g>
<!-- Create2&#45;&gt;Create2 -->
<g id="edge4" class="edge">
<title>Create2&#45;&gt;Create2</title>
<path fill="none" stroke="green" d="M1227.01,-550.42C1218.44,-561.17 1226.62,-572 1251.56,-572 1267.53,-572 1276.62,-567.55 1278.85,-561.53"/>
<polygon fill="green" stroke="green" points="1282.26,-560.75 1276.46,-551.89 1275.46,-562.43 1282.26,-560.75"/>
</g>
<!-- ERC6551BytecodeLib -->
<g id="node6" class="node">
<title>ERC6551BytecodeLib</title>
<ellipse fill="lightgray" stroke="lightgray" cx="916.32" cy="-467" rx="94.86" ry="18"/>
<text xml:space="preserve" text-anchor="middle" x="916.32" y="-461.95" font-family="Times,serif" font-size="14.00">ERC6551BytecodeLib</text>
</g>
<!-- IBeaconUpgradeable -->
<g id="node7" class="node">
<title>IBeaconUpgradeable</title>
<ellipse fill="lightgray" stroke="lightgray" cx="132.73" cy="-1105" rx="88.71" ry="18"/>
<text xml:space="preserve" text-anchor="middle" x="132.73" y="-1099.95" font-family="Times,serif" font-size="14.00">IBeaconUpgradeable</text>
</g>
<!-- IERC1271 -->
<g id="node8" class="node">
<title>IERC1271</title>
<ellipse fill="lightgray" stroke="lightgray" cx="132.73" cy="-1159" rx="50.33" ry="18"/>
<text xml:space="preserve" text-anchor="middle" x="132.73" y="-1153.95" font-family="Times,serif" font-size="14.00">IERC1271</text>
</g>
<!-- IERC165 -->
<g id="node9" class="node">
<title>IERC165</title>
<ellipse fill="lightgray" stroke="lightgray" cx="132.73" cy="-1213" rx="45.72" ry="18"/>
<text xml:space="preserve" text-anchor="middle" x="132.73" y="-1207.95" font-family="Times,serif" font-size="14.00">IERC165</text>
</g>
<!-- IERC1967Upgradeable -->
<g id="node10" class="node">
<title>IERC1967Upgradeable</title>
<ellipse fill="lightgray" stroke="lightgray" cx="132.73" cy="-1267" rx="97.41" ry="18"/>
<text xml:space="preserve" text-anchor="middle" x="132.73" y="-1261.95" font-family="Times,serif" font-size="14.00">IERC1967Upgradeable</text>
</g>
<!-- IERC20 -->
<g id="node11" class="node">
<title>IERC20</title>
<ellipse fill="lightgray" stroke="lightgray" cx="424.97" cy="-144" rx="41.12" ry="18"/>
<text xml:space="preserve" text-anchor="middle" x="424.97" y="-138.95" font-family="Times,serif" font-size="14.00">IERC20</text>
</g>
<!-- IERC20Permit -->
<g id="node12" class="node">
<title>IERC20Permit</title>
<ellipse fill="lightgray" stroke="lightgray" cx="424.97" cy="-90" rx="66.19" ry="18"/>
<text xml:space="preserve" text-anchor="middle" x="424.97" y="-84.95" font-family="Times,serif" font-size="14.00">IERC20Permit</text>
</g>
<!-- IERC6551Account -->
<g id="node13" class="node">
<title>IERC6551Account</title>
<ellipse fill="lightgray" stroke="lightgray" cx="132.73" cy="-1321" rx="81.55" ry="18"/>
<text xml:space="preserve" text-anchor="middle" x="132.73" y="-1315.95" font-family="Times,serif" font-size="14.00">IERC6551Account</text>
</g>
<!-- IERC6551Executable -->
<g id="node14" class="node">
<title>IERC6551Executable</title>
<ellipse fill="lightgray" stroke="lightgray" cx="132.73" cy="-1375" rx="91.27" ry="18"/>
<text xml:space="preserve" text-anchor="middle" x="132.73" y="-1369.95" font-family="Times,serif" font-size="14.00">IERC6551Executable</text>
</g>
<!-- IERC721Receiver -->
<g id="node15" class="node">
<title>IERC721Receiver</title>
<ellipse fill="lightgray" stroke="lightgray" cx="132.73" cy="-1429" rx="78.48" ry="18"/>
<text xml:space="preserve" text-anchor="middle" x="132.73" y="-1423.95" font-family="Times,serif" font-size="14.00">IERC721Receiver</text>
</g>
<!-- ISandboxExecutor -->
<g id="node16" class="node">
<title>ISandboxExecutor</title>
<ellipse fill="lightgray" stroke="lightgray" cx="132.73" cy="-1483" rx="79.5" ry="18"/>
<text xml:space="preserve" text-anchor="middle" x="132.73" y="-1477.95" font-family="Times,serif" font-size="14.00">ISandboxExecutor</text>
</g>
<!-- IShwounsVaultRegistry -->
<g id="node17" class="node">
<title>IShwounsVaultRegistry</title>
<ellipse fill="lightgray" stroke="lightgray" cx="684.98" cy="-837" rx="98.44" ry="18"/>
<text xml:space="preserve" text-anchor="middle" x="684.98" y="-831.95" font-family="Times,serif" font-size="14.00">IShwounsVaultRegistry</text>
</g>
<!-- Math -->
<g id="node18" class="node">
<title>Math</title>
<ellipse fill="lightgray" stroke="lightgray" cx="1251.56" cy="-912" rx="30.88" ry="18"/>
<text xml:space="preserve" text-anchor="middle" x="1251.56" y="-906.95" font-family="Times,serif" font-size="14.00">Math</text>
</g>
<!-- Math&#45;&gt;Math -->
<g id="edge5" class="edge">
<title>Math&#45;&gt;Math</title>
<path fill="none" stroke="green" d="M1228.68,-924.54C1217.55,-935.87 1225.17,-948 1251.56,-948 1269.9,-948 1279.17,-942.14 1279.38,-934.75"/>
<polygon fill="green" stroke="green" points="1282.6,-933.38 1275.09,-925.91 1276.31,-936.43 1282.6,-933.38"/>
</g>
<!-- SignedMath -->
<g id="node19" class="node">
<title>SignedMath</title>
<ellipse fill="lightgray" stroke="lightgray" cx="1251.56" cy="-984" rx="56.47" ry="18"/>
<text xml:space="preserve" text-anchor="middle" x="1251.56" y="-978.95" font-family="Times,serif" font-size="14.00">SignedMath</text>
</g>
<!-- StorageSlotUpgradeable -->
<g id="node20" class="node">
<title>StorageSlotUpgradeable</title>
<ellipse fill="lightgray" stroke="lightgray" cx="424.97" cy="-198" rx="101" ry="18"/>
<text xml:space="preserve" text-anchor="middle" x="424.97" y="-192.95" font-family="Times,serif" font-size="14.00">StorageSlotUpgradeable</text>
</g>
<!-- IERC1822ProxiableUpgradeable -->
<g id="node21" class="node">
<title>IERC1822ProxiableUpgradeable</title>
<ellipse fill="lightgray" stroke="lightgray" cx="132.73" cy="-1537" rx="132.73" ry="18"/>
<text xml:space="preserve" text-anchor="middle" x="132.73" y="-1531.95" font-family="Times,serif" font-size="14.00">IERC1822ProxiableUpgradeable</text>
</g>
<!-- ERC165 -->
<g id="node22" class="node">
<title>ERC165</title>
<ellipse fill="lightgray" stroke="lightgray" cx="132.73" cy="-1591" rx="42.65" ry="18"/>
<text xml:space="preserve" text-anchor="middle" x="132.73" y="-1585.95" font-family="Times,serif" font-size="14.00">ERC165</text>
</g>
<!-- ERC165&#45;&gt;ERC165 -->
<g id="edge6" class="edge">
<title>ERC165&#45;&gt;ERC165</title>
<path fill="none" stroke="green" d="M95.76,-1600.04C63.04,-1612.2 75.36,-1627 132.73,-1627 182.92,-1627 198.63,-1615.67 179.86,-1604.69"/>
<polygon fill="green" stroke="green" points="181.63,-1601.65 171.08,-1600.67 178.71,-1608.02 181.63,-1601.65"/>
</g>
<!-- ERC2771Context -->
<g id="node23" class="node">
<title>ERC2771Context</title>
<ellipse fill="lightgray" stroke="lightgray" cx="132.73" cy="-1033" rx="76.43" ry="18"/>
<text xml:space="preserve" text-anchor="middle" x="132.73" y="-1027.95" font-family="Times,serif" font-size="14.00">ERC2771Context</text>
</g>
<!-- ERC2771Context&#45;&gt;Context -->
<g id="edge8" class="edge">
<title>ERC2771Context&#45;&gt;Context</title>
<path fill="none" stroke="orange" d="M209.61,-1033C261.22,-1033 328.08,-1033 373.31,-1033"/>
<polygon fill="orange" stroke="orange" points="373.09,-1036.5 383.09,-1033 373.09,-1029.5 373.09,-1036.5"/>
</g>
<!-- ERC2771Context&#45;&gt;ERC2771Context -->
<g id="edge7" class="edge">
<title>ERC2771Context&#45;&gt;ERC2771Context</title>
<path fill="none" stroke="green" d="M84.71,-1047.23C67.35,-1058.04 83.36,-1069 132.73,-1069 167.44,-1069 185.66,-1063.58 187.39,-1056.61"/>
<polygon fill="green" stroke="green" points="190.26,-1054.6 181.63,-1048.46 184.55,-1058.65 190.26,-1054.6"/>
</g>
<!-- ERC721Holder -->
<g id="node24" class="node">
<title>ERC721Holder</title>
<ellipse fill="lightgray" stroke="lightgray" cx="132.73" cy="-1663" rx="68.24" ry="18"/>
<text xml:space="preserve" text-anchor="middle" x="132.73" y="-1657.95" font-family="Times,serif" font-size="14.00">ERC721Holder</text>
</g>
<!-- IERC1155 -->
<g id="node25" class="node">
<title>IERC1155</title>
<ellipse fill="lightgray" stroke="lightgray" cx="132.73" cy="-1717" rx="50.33" ry="18"/>
<text xml:space="preserve" text-anchor="middle" x="132.73" y="-1711.95" font-family="Times,serif" font-size="14.00">IERC1155</text>
</g>
<!-- IERC1155Receiver -->
<g id="node26" class="node">
<title>IERC1155Receiver</title>
<ellipse fill="lightgray" stroke="lightgray" cx="424.97" cy="-1771" rx="83.08" ry="18"/>
<text xml:space="preserve" text-anchor="middle" x="424.97" y="-1765.95" font-family="Times,serif" font-size="14.00">IERC1155Receiver</text>
</g>
<!-- IERC721 -->
<g id="node27" class="node">
<title>IERC721</title>
<ellipse fill="lightgray" stroke="lightgray" cx="132.73" cy="-1843" rx="45.72" ry="18"/>
<text xml:space="preserve" text-anchor="middle" x="132.73" y="-1837.95" font-family="Times,serif" font-size="14.00">IERC721</text>
</g>
<!-- IShwounsDescriptorMinimal -->
<g id="node28" class="node">
<title>IShwounsDescriptorMinimal</title>
<ellipse fill="lightgray" stroke="lightgray" cx="132.73" cy="-1897" rx="119.42" ry="18"/>
<text xml:space="preserve" text-anchor="middle" x="132.73" y="-1891.95" font-family="Times,serif" font-size="14.00">IShwounsDescriptorMinimal</text>
</g>
<!-- IShwounsSeeder -->
<g id="node29" class="node">
<title>IShwounsSeeder</title>
<ellipse fill="lightgray" stroke="lightgray" cx="132.73" cy="-1951" rx="72.85" ry="18"/>
<text xml:space="preserve" text-anchor="middle" x="132.73" y="-1945.95" font-family="Times,serif" font-size="14.00">IShwounsSeeder</text>
</g>
<!-- Initializable -->
<g id="node30" class="node">
<title>Initializable</title>
<ellipse fill="lightgray" stroke="lightgray" cx="132.73" cy="-270" rx="54.93" ry="18"/>
<text xml:space="preserve" text-anchor="middle" x="132.73" y="-264.95" font-family="Times,serif" font-size="14.00">Initializable</text>
</g>
<!-- Initializable&#45;&gt;AddressUpgradeable -->
<g id="edge9" class="edge">
<title>Initializable&#45;&gt;AddressUpgradeable</title>
<path fill="none" stroke="orange" d="M187.64,-268.33C226.41,-267.13 279.79,-265.47 326.01,-264.04"/>
<polygon fill="orange" stroke="orange" points="325.88,-267.54 335.77,-263.74 325.67,-260.55 325.88,-267.54"/>
</g>
<!-- Initializable&#45;&gt;Initializable -->
<g id="edge10" class="edge">
<title>Initializable&#45;&gt;Initializable</title>
<path fill="none" stroke="green" d="M89.97,-281.43C64.82,-293.06 79.07,-306 132.73,-306 177.16,-306 194.57,-297.12 184.96,-287.47"/>
<polygon fill="green" stroke="green" points="187.07,-284.66 176.76,-282.24 183.31,-290.57 187.07,-284.66"/>
</g>
<!-- LibSandbox -->
<g id="node31" class="node">
<title>LibSandbox</title>
<ellipse fill="lightgray" stroke="lightgray" cx="1103.13" cy="-559" rx="55.96" ry="18"/>
<text xml:space="preserve" text-anchor="middle" x="1103.13" y="-553.95" font-family="Times,serif" font-size="14.00">LibSandbox</text>
</g>
<!-- LibSandbox&#45;&gt;Create2 -->
<g id="edge11" class="edge">
<title>LibSandbox&#45;&gt;Create2</title>
<path fill="none" stroke="orange" d="M1154.11,-551.15C1169.84,-548.68 1187.17,-545.96 1202.75,-543.51"/>
<polygon fill="orange" stroke="orange" points="1202.91,-547.03 1212.24,-542.02 1201.82,-540.11 1202.91,-547.03"/>
</g>
<!-- LibSandbox&#45;&gt;LibSandbox -->
<g id="edge12" class="edge">
<title>LibSandbox&#45;&gt;LibSandbox</title>
<path fill="none" stroke="green" d="M1077.26,-575.29C1071.02,-585.39 1079.65,-595 1103.13,-595 1117.07,-595 1125.77,-591.61 1129.24,-586.74"/>
<polygon fill="green" stroke="green" points="1132.74,-586.73 1129.03,-576.8 1125.74,-586.88 1132.74,-586.73"/>
</g>
<!-- Signatory -->
<g id="node32" class="node">
<title>Signatory</title>
<ellipse fill="lightgray" stroke="lightgray" cx="684.98" cy="-405" rx="46.75" ry="18"/>
<text xml:space="preserve" text-anchor="middle" x="684.98" y="-399.95" font-family="Times,serif" font-size="14.00">Signatory</text>
</g>
<!-- Signatory&#45;&gt;Signatory -->
<g id="edge13" class="edge">
<title>Signatory&#45;&gt;Signatory</title>
<path fill="none" stroke="green" d="M649.9,-417.17C631.72,-428.6 643.41,-441 684.98,-441 716.48,-441 730.82,-433.88 728.01,-425.46"/>
<polygon fill="green" stroke="green" points="730.55,-423.05 721.1,-418.26 725.5,-427.9 730.55,-423.05"/>
</g>
<!-- ERC6551AccountLib -->
<g id="node33" class="node">
<title>ERC6551AccountLib</title>
<ellipse fill="lightgray" stroke="lightgray" cx="684.98" cy="-477" rx="91.27" ry="18"/>
<text xml:space="preserve" text-anchor="middle" x="684.98" y="-471.95" font-family="Times,serif" font-size="14.00">ERC6551AccountLib</text>
</g>
<!-- ERC6551AccountLib&#45;&gt;Create2 -->
<g id="edge15" class="edge">
<title>ERC6551AccountLib&#45;&gt;Create2</title>
<path fill="none" stroke="orange" d="M762.24,-486.94C781.55,-489.35 802.26,-491.86 821.46,-494 958.83,-509.34 1121.3,-524.4 1201.17,-531.61"/>
<polygon fill="orange" stroke="orange" points="1200.56,-535.07 1210.84,-532.48 1201.19,-528.09 1200.56,-535.07"/>
</g>
<!-- ERC6551AccountLib&#45;&gt;ERC6551BytecodeLib -->
<g id="edge14" class="edge">
<title>ERC6551AccountLib&#45;&gt;ERC6551BytecodeLib</title>
<path fill="none" stroke="orange" d="M774.64,-473.13C786.9,-472.6 799.57,-472.05 812.07,-471.5"/>
<polygon fill="orange" stroke="orange" points="812.12,-475 821.96,-471.07 811.82,-468.01 812.12,-475"/>
</g>
<!-- ERC6551AccountLib&#45;&gt;ERC6551AccountLib -->
<g id="edge16" class="edge">
<title>ERC6551AccountLib&#45;&gt;ERC6551AccountLib</title>
<path fill="none" stroke="green" d="M644.66,-493.29C634.94,-503.39 648.38,-513 684.98,-513 706.71,-513 720.27,-509.61 725.67,-504.74"/>
<polygon fill="green" stroke="green" points="729.17,-504.68 725.34,-494.8 722.18,-504.91 729.17,-504.68"/>
</g>
<!-- Strings -->
<g id="node34" class="node">
<title>Strings</title>
<ellipse fill="lightgray" stroke="lightgray" cx="1103.13" cy="-948" rx="37.02" ry="18"/>
<text xml:space="preserve" text-anchor="middle" x="1103.13" y="-942.95" font-family="Times,serif" font-size="14.00">Strings</text>
</g>
<!-- Strings&#45;&gt;Math -->
<g id="edge17" class="edge">
<title>Strings&#45;&gt;Math</title>
<path fill="none" stroke="orange" d="M1136.63,-940.01C1158.78,-934.56 1188.23,-927.32 1211.64,-921.57"/>
<polygon fill="orange" stroke="orange" points="1212.24,-925.02 1221.12,-919.24 1210.57,-918.23 1212.24,-925.02"/>
</g>
<!-- Strings&#45;&gt;SignedMath -->
<g id="edge19" class="edge">
<title>Strings&#45;&gt;SignedMath</title>
<path fill="none" stroke="orange" d="M1136.63,-955.99C1153.75,-960.2 1175.23,-965.48 1194.91,-970.32"/>
<polygon fill="orange" stroke="orange" points="1193.92,-973.68 1204.46,-972.67 1195.59,-966.88 1193.92,-973.68"/>
</g>
<!-- Strings&#45;&gt;Strings -->
<g id="edge18" class="edge">
<title>Strings&#45;&gt;Strings</title>
<path fill="none" stroke="green" d="M1078.89,-962.04C1069.83,-972.91 1077.91,-984 1103.13,-984 1119.68,-984 1128.85,-979.23 1130.63,-972.87"/>
<polygon fill="green" stroke="green" points="1134.04,-972.05 1127.8,-963.49 1127.34,-974.08 1134.04,-972.05"/>
</g>
<!-- ECDSA -->
<g id="node35" class="node">
<title>ECDSA</title>
<ellipse fill="lightgray" stroke="lightgray" cx="916.32" cy="-948" rx="41.12" ry="18"/>
<text xml:space="preserve" text-anchor="middle" x="916.32" y="-942.95" font-family="Times,serif" font-size="14.00">ECDSA</text>
</g>
<!-- ECDSA&#45;&gt;Strings -->
<g id="edge21" class="edge">
<title>ECDSA&#45;&gt;Strings</title>
<path fill="none" stroke="orange" d="M957.87,-948C986.3,-948 1024.39,-948 1054.3,-948"/>
<polygon fill="orange" stroke="orange" points="1054.22,-951.5 1064.22,-948 1054.22,-944.5 1054.22,-951.5"/>
</g>
<!-- ECDSA&#45;&gt;ECDSA -->
<g id="edge20" class="edge">
<title>ECDSA&#45;&gt;ECDSA</title>
<path fill="none" stroke="green" d="M887.07,-960.92C873.73,-972.13 883.48,-984 916.32,-984 939.4,-984 951.08,-978.13 951.34,-970.75"/>
<polygon fill="green" stroke="green" points="954.41,-969.07 946.33,-962.22 948.38,-972.62 954.41,-969.07"/>
</g>
<!-- ERC1155Receiver -->
<g id="node36" class="node">
<title>ERC1155Receiver</title>
<ellipse fill="lightgray" stroke="lightgray" cx="132.73" cy="-1771" rx="80.01" ry="18"/>
<text xml:space="preserve" text-anchor="middle" x="132.73" y="-1765.95" font-family="Times,serif" font-size="14.00">ERC1155Receiver</text>
</g>
<!-- ERC1155Receiver&#45;&gt;IERC1155Receiver -->
<g id="edge23" class="edge">
<title>ERC1155Receiver&#45;&gt;IERC1155Receiver</title>
<path fill="none" stroke="orange" d="M213.04,-1771C249.32,-1771 292.57,-1771 330.43,-1771"/>
<polygon fill="orange" stroke="orange" points="329.96,-1774.5 339.96,-1771 329.96,-1767.5 329.96,-1774.5"/>
</g>
<!-- ERC1155Receiver&#45;&gt;ERC1155Receiver -->
<g id="edge22" class="edge">
<title>ERC1155Receiver&#45;&gt;ERC1155Receiver</title>
<path fill="none" stroke="green" d="M84.12,-1785.6C67.72,-1796.29 83.93,-1807 132.73,-1807 166.28,-1807 184.42,-1801.94 187.16,-1795.3"/>
<polygon fill="green" stroke="green" points="190.27,-1793.68 182.12,-1786.9 184.26,-1797.28 190.27,-1793.68"/>
</g>
<!-- LibExecutor -->
<g id="node37" class="node">
<title>LibExecutor</title>
<ellipse fill="lightgray" stroke="lightgray" cx="916.32" cy="-604" rx="56.98" ry="18"/>
<text xml:space="preserve" text-anchor="middle" x="916.32" y="-598.95" font-family="Times,serif" font-size="14.00">LibExecutor</text>
</g>
<!-- LibExecutor&#45;&gt;LibSandbox -->
<g id="edge25" class="edge">
<title>LibExecutor&#45;&gt;LibSandbox</title>
<path fill="none" stroke="orange" d="M962.05,-593.11C987.5,-586.91 1019.58,-579.1 1046.62,-572.51"/>
<polygon fill="orange" stroke="orange" points="1047.12,-576 1056.01,-570.23 1045.47,-569.19 1047.12,-576"/>
</g>
<!-- LibExecutor&#45;&gt;LibExecutor -->
<g id="edge24" class="edge">
<title>LibExecutor&#45;&gt;LibExecutor</title>
<path fill="none" stroke="green" d="M884.71,-619.17C875.13,-629.66 885.67,-640 916.32,-640 935.47,-640 946.77,-635.96 950.21,-630.37"/>
<polygon fill="green" stroke="green" points="953.66,-629.75 948.23,-620.65 946.8,-631.15 953.66,-629.75"/>
</g>
<!-- SafeERC20 -->
<g id="node38" class="node">
<title>SafeERC20</title>
<ellipse fill="lightgray" stroke="lightgray" cx="132.73" cy="-90" rx="54.42" ry="18"/>
<text xml:space="preserve" text-anchor="middle" x="132.73" y="-84.95" font-family="Times,serif" font-size="14.00">SafeERC20</text>
</g>
<!-- SafeERC20&#45;&gt;Address -->
<g id="edge29" class="edge">
<title>SafeERC20&#45;&gt;Address</title>
<path fill="none" stroke="orange" d="M177.18,-79.22C231.04,-65.86 322.43,-43.19 377.6,-29.5"/>
<polygon fill="orange" stroke="orange" points="378.13,-32.98 386.99,-27.17 376.44,-26.18 378.13,-32.98"/>
</g>
<!-- SafeERC20&#45;&gt;IERC20 -->
<g id="edge27" class="edge">
<title>SafeERC20&#45;&gt;IERC20</title>
<path fill="none" stroke="orange" d="M181.01,-98.8C234.7,-108.78 321.83,-125 375.86,-135.05"/>
<polygon fill="orange" stroke="orange" points="374.9,-138.43 385.37,-136.82 376.18,-131.55 374.9,-138.43"/>
</g>
<!-- SafeERC20&#45;&gt;IERC20Permit -->
<g id="edge28" class="edge">
<title>SafeERC20&#45;&gt;IERC20Permit</title>
<path fill="none" stroke="orange" d="M187.64,-90C232.43,-90 296.72,-90 346.94,-90"/>
<polygon fill="orange" stroke="orange" points="346.89,-93.5 356.89,-90 346.89,-86.5 346.89,-93.5"/>
</g>
<!-- SafeERC20&#45;&gt;SafeERC20 -->
<g id="edge26" class="edge">
<title>SafeERC20&#45;&gt;SafeERC20</title>
<path fill="none" stroke="green" d="M89.97,-101.43C64.82,-113.06 79.07,-126 132.73,-126 177.16,-126 194.57,-117.12 184.96,-107.47"/>
<polygon fill="green" stroke="green" points="187.07,-104.66 176.76,-102.24 183.31,-110.57 187.07,-104.66"/>
</g>
<!-- ERC1155Holder -->
<g id="node39" class="node">
<title>ERC1155Holder</title>
<ellipse fill="lightgray" stroke="lightgray" cx="132.73" cy="-2005" rx="72.85" ry="18"/>
<text xml:space="preserve" text-anchor="middle" x="132.73" y="-1999.95" font-family="Times,serif" font-size="14.00">ERC1155Holder</text>
</g>
<!-- IShwounsToken -->
<g id="node40" class="node">
<title>IShwounsToken</title>
<ellipse fill="lightgray" stroke="lightgray" cx="132.73" cy="-2059" rx="71.31" ry="18"/>
<text xml:space="preserve" text-anchor="middle" x="132.73" y="-2053.95" font-family="Times,serif" font-size="14.00">IShwounsToken</text>
</g>
<!-- Permissioned -->
<g id="node41" class="node">
<title>Permissioned</title>
<ellipse fill="lightgray" stroke="lightgray" cx="424.97" cy="-513" rx="61.08" ry="18"/>
<text xml:space="preserve" text-anchor="middle" x="424.97" y="-507.95" font-family="Times,serif" font-size="14.00">Permissioned</text>
</g>
<!-- Permissioned&#45;&gt;ERC6551AccountLib -->
<g id="edge30" class="edge">
<title>Permissioned&#45;&gt;ERC6551AccountLib</title>
<path fill="none" stroke="orange" d="M480.69,-505.37C514.75,-500.61 559.29,-494.4 598,-489"/>
<polygon fill="orange" stroke="orange" points="598.36,-492.48 607.78,-487.63 597.39,-485.55 598.36,-492.48"/>
</g>
<!-- Permissioned&#45;&gt;Permissioned -->
<g id="edge31" class="edge">
<title>Permissioned&#45;&gt;Permissioned</title>
<path fill="none" stroke="green" d="M383.37,-526.48C366.16,-537.53 380.03,-549 424.97,-549 457.98,-549 474.22,-542.81 473.71,-535.15"/>
<polygon fill="green" stroke="green" points="476.6,-533.15 467.54,-527.65 471.19,-537.59 476.6,-533.15"/>
</g>
<!-- SandboxExecutor -->
<g id="node42" class="node">
<title>SandboxExecutor</title>
<ellipse fill="lightgray" stroke="lightgray" cx="684.98" cy="-549" rx="76.43" ry="18"/>
<text xml:space="preserve" text-anchor="middle" x="684.98" y="-543.95" font-family="Times,serif" font-size="14.00">SandboxExecutor</text>
</g>
<!-- SandboxExecutor&#45;&gt;LibSandbox -->
<g id="edge32" class="edge">
<title>SandboxExecutor&#45;&gt;LibSandbox</title>
<path fill="none" stroke="orange" d="M761.34,-550.81C839.65,-552.69 961,-555.61 1035.79,-557.41"/>
<polygon fill="orange" stroke="orange" points="1035.34,-560.9 1045.42,-557.64 1035.5,-553.9 1035.34,-560.9"/>
</g>
<!-- SandboxExecutor&#45;&gt;LibExecutor -->
<g id="edge34" class="edge">
<title>SandboxExecutor&#45;&gt;LibExecutor</title>
<path fill="none" stroke="orange" d="M739.75,-561.9C775.62,-570.5 822.7,-581.79 859.07,-590.51"/>
<polygon fill="orange" stroke="orange" points="857.98,-593.85 868.52,-592.78 859.61,-587.04 857.98,-593.85"/>
</g>
<!-- SandboxExecutor&#45;&gt;SandboxExecutor -->
<g id="edge33" class="edge">
<title>SandboxExecutor&#45;&gt;SandboxExecutor</title>
<path fill="none" stroke="green" d="M645.42,-564.54C634.29,-574.91 647.47,-585 684.98,-585 708.41,-585 722.35,-581.06 726.79,-575.57"/>
<polygon fill="green" stroke="green" points="730.27,-575.11 724.83,-566.02 723.42,-576.52 730.27,-575.11"/>
</g>
<!-- SignatureChecker -->
<g id="node43" class="node">
<title>SignatureChecker</title>
<ellipse fill="lightgray" stroke="lightgray" cx="684.98" cy="-929" rx="76.94" ry="18"/>
<text xml:space="preserve" text-anchor="middle" x="684.98" y="-923.95" font-family="Times,serif" font-size="14.00">SignatureChecker</text>
</g>
<!-- SignatureChecker&#45;&gt;ECDSA -->
<g id="edge35" class="edge">
<title>SignatureChecker&#45;&gt;ECDSA</title>
<path fill="none" stroke="orange" d="M758.23,-934.99C792.57,-937.83 832.83,-941.17 863.99,-943.75"/>
<polygon fill="orange" stroke="orange" points="863.69,-947.23 873.94,-944.57 864.27,-940.26 863.69,-947.23"/>
</g>
<!-- SignatureChecker&#45;&gt;SignatureChecker -->
<g id="edge36" class="edge">
<title>SignatureChecker&#45;&gt;SignatureChecker</title>
<path fill="none" stroke="green" d="M645.42,-944.54C634.29,-954.91 647.47,-965 684.98,-965 708.41,-965 722.35,-961.06 726.79,-955.57"/>
<polygon fill="green" stroke="green" points="730.27,-955.11 724.83,-946.02 723.42,-956.52 730.27,-955.11"/>
</g>
<!-- ERC1967UpgradeUpgradeable -->
<g id="node44" class="node">
<title>ERC1967UpgradeUpgradeable</title>
<ellipse fill="lightgray" stroke="lightgray" cx="132.73" cy="-198" rx="126.08" ry="18"/>
<text xml:space="preserve" text-anchor="middle" x="132.73" y="-192.95" font-family="Times,serif" font-size="14.00">ERC1967UpgradeUpgradeable</text>
</g>
<!-- ERC1967UpgradeUpgradeable&#45;&gt;AddressUpgradeable -->
<g id="edge38" class="edge">
<title>ERC1967UpgradeUpgradeable&#45;&gt;AddressUpgradeable</title>
<path fill="none" stroke="orange" d="M203.99,-213.25C248.84,-222.99 306.83,-235.57 352.01,-245.38"/>
<polygon fill="orange" stroke="orange" points="351.21,-248.79 361.73,-247.49 352.7,-241.95 351.21,-248.79"/>
</g>
<!-- ERC1967UpgradeUpgradeable&#45;&gt;StorageSlotUpgradeable -->
<g id="edge37" class="edge">
<title>ERC1967UpgradeUpgradeable&#45;&gt;StorageSlotUpgradeable</title>
<path fill="none" stroke="orange" d="M258.92,-198C276.67,-198 294.82,-198 312.29,-198"/>
<polygon fill="orange" stroke="orange" points="312.15,-201.5 322.15,-198 312.15,-194.5 312.15,-201.5"/>
</g>
<!-- ERC1967UpgradeUpgradeable&#45;&gt;ERC1967UpgradeUpgradeable -->
<g id="edge39" class="edge">
<title>ERC1967UpgradeUpgradeable&#45;&gt;ERC1967UpgradeUpgradeable</title>
<path fill="none" stroke="green" d="M81.36,-214.66C69.94,-224.62 87.07,-234 132.73,-234 159.48,-234 176.44,-230.78 183.6,-226.11"/>
<polygon fill="green" stroke="green" points="187.1,-226.32 184.03,-216.18 180.1,-226.01 187.1,-226.32"/>
</g>
<!-- IShwounsTokenLike -->
<g id="node45" class="node">
<title>IShwounsTokenLike</title>
<ellipse fill="lightgray" stroke="lightgray" cx="132.73" cy="-2113" rx="88.2" ry="18"/>
<text xml:space="preserve" text-anchor="middle" x="132.73" y="-2107.95" font-family="Times,serif" font-size="14.00">IShwounsTokenLike</text>
</g>
<!-- ShwounsDAOEvents -->
<g id="node46" class="node">
<title>ShwounsDAOEvents</title>
<ellipse fill="lightgray" stroke="lightgray" cx="132.73" cy="-2167" rx="89.74" ry="18"/>
<text xml:space="preserve" text-anchor="middle" x="132.73" y="-2161.95" font-family="Times,serif" font-size="14.00">ShwounsDAOEvents</text>
</g>
<!-- ShwounsDAOTypes -->
<g id="node47" class="node">
<title>ShwounsDAOTypes</title>
<ellipse fill="lightgray" stroke="lightgray" cx="916.32" cy="-829" rx="87.18" ry="18"/>
<text xml:space="preserve" text-anchor="middle" x="916.32" y="-823.95" font-family="Times,serif" font-size="14.00">ShwounsDAOTypes</text>
</g>
<!-- ShwounsDAOStorage -->
<g id="node48" class="node">
<title>ShwounsDAOStorage</title>
<ellipse fill="lightgray" stroke="lightgray" cx="132.73" cy="-2221" rx="92.81" ry="18"/>
<text xml:space="preserve" text-anchor="middle" x="132.73" y="-2215.95" font-family="Times,serif" font-size="14.00">ShwounsDAOStorage</text>
</g>
<!-- BaseExecutor -->
<g id="node49" class="node">
<title>BaseExecutor</title>
<ellipse fill="lightgray" stroke="lightgray" cx="916.32" cy="-693" rx="62.1" ry="18"/>
<text xml:space="preserve" text-anchor="middle" x="916.32" y="-687.95" font-family="Times,serif" font-size="14.00">BaseExecutor</text>
</g>
<!-- ShwounsDAOQuorum -->
<g id="node50" class="node">
<title>ShwounsDAOQuorum</title>
<ellipse fill="lightgray" stroke="lightgray" cx="684.98" cy="-765" rx="95.88" ry="18"/>
<text xml:space="preserve" text-anchor="middle" x="684.98" y="-759.95" font-family="Times,serif" font-size="14.00">ShwounsDAOQuorum</text>
</g>
<!-- ShwounsDAOQuorum&#45;&gt;ShwounsDAOTypes -->
<g id="edge41" class="edge">
<title>ShwounsDAOQuorum&#45;&gt;ShwounsDAOTypes</title>
<path fill="none" stroke="orange" d="M740.04,-780.09C773.64,-789.46 816.99,-801.56 852.17,-811.38"/>
<polygon fill="orange" stroke="orange" points="850.77,-814.62 861.35,-813.94 852.65,-807.88 850.77,-814.62"/>
</g>
<!-- ShwounsDAOQuorum&#45;&gt;ShwounsDAOQuorum -->
<g id="edge40" class="edge">
<title>ShwounsDAOQuorum&#45;&gt;ShwounsDAOQuorum</title>
<path fill="none" stroke="green" d="M644.31,-781.66C635.27,-791.62 648.83,-801 684.98,-801 706.44,-801 719.94,-797.69 725.47,-792.92"/>
<polygon fill="green" stroke="green" points="728.96,-793.23 725.62,-783.18 721.97,-793.12 728.96,-793.23"/>
</g>
<!-- UUPSUpgradeable -->
<g id="node51" class="node">
<title>UUPSUpgradeable</title>
<ellipse fill="lightgray" stroke="lightgray" cx="132.73" cy="-2275" rx="81.55" ry="18"/>
<text xml:space="preserve" text-anchor="middle" x="132.73" y="-2269.95" font-family="Times,serif" font-size="14.00">UUPSUpgradeable</text>
</g>
<!-- UUPSUpgradeable&#45;&gt;UUPSUpgradeable -->
<g id="edge42" class="edge">
<title>UUPSUpgradeable&#45;&gt;UUPSUpgradeable</title>
<path fill="none" stroke="green" d="M83.83,-2289.79C67.91,-2300.42 84.21,-2311 132.73,-2311 165.33,-2311 183.38,-2306.22 186.89,-2299.86"/>
<polygon fill="green" stroke="green" points="190.06,-2298.37 182.33,-2291.13 183.86,-2301.62 190.06,-2298.37"/>
</g>
<!-- BatchExecutor -->
<g id="node52" class="node">
<title>BatchExecutor</title>
<ellipse fill="lightgray" stroke="lightgray" cx="684.98" cy="-621" rx="65.68" ry="18"/>
<text xml:space="preserve" text-anchor="middle" x="684.98" y="-615.95" font-family="Times,serif" font-size="14.00">BatchExecutor</text>
</g>
<!-- BatchExecutor&#45;&gt;LibExecutor -->
<g id="edge44" class="edge">
<title>BatchExecutor&#45;&gt;LibExecutor</title>
<path fill="none" stroke="orange" d="M748.95,-616.33C780.01,-614.03 817.47,-611.25 848.97,-608.92"/>
<polygon fill="orange" stroke="orange" points="849.06,-612.42 858.78,-608.19 848.55,-605.44 849.06,-612.42"/>
</g>
<!-- BatchExecutor&#45;&gt;BatchExecutor -->
<g id="edge43" class="edge">
<title>BatchExecutor&#45;&gt;BatchExecutor</title>
<path fill="none" stroke="green" d="M646.27,-635.79C633.67,-646.42 646.57,-657 684.98,-657 710.18,-657 724.4,-652.44 727.64,-646.31"/>
<polygon fill="green" stroke="green" points="731.01,-645.34 724.21,-637.21 724.46,-647.8 731.01,-645.34"/>
</g>
<!-- ERC6551Account -->
<g id="node53" class="node">
<title>ERC6551Account</title>
<ellipse fill="lightgray" stroke="lightgray" cx="424.97" cy="-441" rx="78.48" ry="18"/>
<text xml:space="preserve" text-anchor="middle" x="424.97" y="-435.95" font-family="Times,serif" font-size="14.00">ERC6551Account</text>
</g>
<!-- ERC6551Account&#45;&gt;Signatory -->
<g id="edge47" class="edge">
<title>ERC6551Account&#45;&gt;Signatory</title>
<path fill="none" stroke="orange" d="M492.75,-431.68C535.15,-425.77 589.34,-418.2 629.2,-412.64"/>
<polygon fill="orange" stroke="orange" points="629.64,-416.12 639.06,-411.27 628.67,-409.18 629.64,-416.12"/>
</g>
<!-- ERC6551Account&#45;&gt;ERC6551AccountLib -->
<g id="edge46" class="edge">
<title>ERC6551Account&#45;&gt;ERC6551AccountLib</title>
<path fill="none" stroke="orange" d="M492.75,-450.32C524.95,-454.81 563.95,-460.25 598.31,-465.05"/>
<polygon fill="orange" stroke="orange" points="597.4,-468.45 607.79,-466.37 598.37,-461.52 597.4,-468.45"/>
</g>
<!-- ERC6551Account&#45;&gt;ERC6551Account -->
<g id="edge45" class="edge">
<title>ERC6551Account&#45;&gt;ERC6551Account</title>
<path fill="none" stroke="green" d="M380.98,-456.17C367.65,-466.66 382.32,-477 424.97,-477 452.3,-477 468.14,-472.76 472.49,-466.95"/>
<polygon fill="green" stroke="green" points="475.87,-466.02 469.43,-457.61 469.22,-468.2 475.87,-466.02"/>
</g>
<!-- IProposalEscrow -->
<g id="node54" class="node">
<title>IProposalEscrow</title>
<ellipse fill="lightgray" stroke="lightgray" cx="132.73" cy="-2347" rx="73.87" ry="18"/>
<text xml:space="preserve" text-anchor="middle" x="132.73" y="-2341.95" font-family="Times,serif" font-size="14.00">IProposalEscrow</text>
</g>
<!-- ProposalEscrow -->
<g id="node55" class="node">
<title>ProposalEscrow</title>
<ellipse fill="lightgray" stroke="lightgray" cx="132.73" cy="-2401" rx="70.8" ry="18"/>
<text xml:space="preserve" text-anchor="middle" x="132.73" y="-2395.95" font-family="Times,serif" font-size="14.00">ProposalEscrow</text>
</g>
<!-- ProposalEscrow&#45;&gt;ProposalEscrow -->
<g id="edge48" class="edge">
<title>ProposalEscrow&#45;&gt;ProposalEscrow</title>
<path fill="none" stroke="green" d="M85.64,-2414.67C66.8,-2425.66 82.5,-2437 132.73,-2437 170.4,-2437 188.65,-2430.62 187.47,-2422.79"/>
<polygon fill="green" stroke="green" points="190.26,-2420.65 180.86,-2415.77 185.16,-2425.45 190.26,-2420.65"/>
</g>
<!-- ERC6551Executor -->
<g id="node56" class="node">
<title>ERC6551Executor</title>
<ellipse fill="lightgray" stroke="lightgray" cx="684.98" cy="-693" rx="80.52" ry="18"/>
<text xml:space="preserve" text-anchor="middle" x="684.98" y="-687.95" font-family="Times,serif" font-size="14.00">ERC6551Executor</text>
</g>
<!-- ERC6551Executor&#45;&gt;LibExecutor -->
<g id="edge50" class="edge">
<title>ERC6551Executor&#45;&gt;LibExecutor</title>
<path fill="none" stroke="orange" d="M741.53,-679.82C756,-675.88 771.45,-671.2 785.46,-666 816.85,-654.35 850.97,-637.91 876.35,-624.88"/>
<polygon fill="orange" stroke="orange" points="877.71,-628.12 884.97,-620.41 874.49,-621.91 877.71,-628.12"/>
</g>
<!-- ERC6551Executor&#45;&gt;BaseExecutor -->
<g id="edge51" class="edge">
<title>ERC6551Executor&#45;&gt;BaseExecutor</title>
<path fill="none" stroke="orange" d="M765.87,-693C790.75,-693 818.05,-693 842.43,-693"/>
<polygon fill="orange" stroke="orange" points="842.26,-696.5 852.26,-693 842.26,-689.5 842.26,-696.5"/>
</g>
<!-- ERC6551Executor&#45;&gt;ERC6551Executor -->
<g id="edge49" class="edge">
<title>ERC6551Executor&#45;&gt;ERC6551Executor</title>
<path fill="none" stroke="green" d="M645.03,-708.92C634.61,-719.15 647.92,-729 684.98,-729 707.55,-729 721.32,-725.34 726.27,-720.17"/>
<polygon fill="green" stroke="green" points="729.76,-719.93 725.1,-710.42 722.81,-720.76 729.76,-719.93"/>
</g>
<!-- ShwounsVault -->
<g id="node57" class="node">
<title>ShwounsVault</title>
<ellipse fill="lightgray" stroke="lightgray" cx="424.97" cy="-837" rx="64.15" ry="18"/>
<text xml:space="preserve" text-anchor="middle" x="424.97" y="-831.95" font-family="Times,serif" font-size="14.00">ShwounsVault</text>
</g>
<!-- ShwounsVault&#45;&gt;IShwounsVaultRegistry -->
<g id="edge53" class="edge">
<title>ShwounsVault&#45;&gt;IShwounsVaultRegistry</title>
<path fill="none" stroke="orange" d="M489.42,-837C515.1,-837 545.51,-837 574.56,-837"/>
<polygon fill="orange" stroke="orange" points="574.53,-840.5 584.53,-837 574.53,-833.5 574.53,-840.5"/>
</g>
<!-- ShwounsVault&#45;&gt;ERC6551AccountLib -->
<g id="edge54" class="edge">
<title>ShwounsVault&#45;&gt;ERC6551AccountLib</title>
<path fill="none" stroke="orange" d="M430.5,-818.76C444.48,-765.95 491.72,-611.01 584.49,-522 595.34,-511.59 609.01,-503.32 622.71,-496.85"/>
<polygon fill="orange" stroke="orange" points="624.03,-500.09 631.77,-492.86 621.21,-493.69 624.03,-500.09"/>
</g>
<!-- ShwounsVault&#45;&gt;ECDSA -->
<g id="edge57" class="edge">
<title>ShwounsVault&#45;&gt;ECDSA</title>
<path fill="none" stroke="orange" d="M480.63,-846.38C573.88,-862.46 756.46,-894.3 785.46,-902 815.87,-910.08 849.31,-922 874.64,-931.68"/>
<polygon fill="orange" stroke="orange" points="873.31,-934.92 883.9,-935.27 875.84,-928.39 873.31,-934.92"/>
</g>
<!-- ShwounsVault&#45;&gt;SignatureChecker -->
<g id="edge56" class="edge">
<title>ShwounsVault&#45;&gt;SignatureChecker</title>
<path fill="none" stroke="orange" d="M463.25,-851.72C495.25,-864.21 542.69,-882.38 584.49,-897 598,-901.73 612.64,-906.58 626.42,-911.03"/>
<polygon fill="orange" stroke="orange" points="625.22,-914.32 635.81,-914.05 627.36,-907.66 625.22,-914.32"/>
</g>
<!-- ShwounsVault&#45;&gt;BatchExecutor -->
<g id="edge55" class="edge">
<title>ShwounsVault&#45;&gt;BatchExecutor</title>
<path fill="none" stroke="orange" d="M438.72,-819.06C463.49,-785.28 521.25,-711.53 584.49,-666 599.13,-655.46 616.63,-646.54 632.84,-639.49"/>
<polygon fill="orange" stroke="orange" points="634,-642.8 641.87,-635.71 631.3,-636.34 634,-642.8"/>
</g>
<!-- ShwounsVault&#45;&gt;ShwounsVault -->
<g id="edge52" class="edge">
<title>ShwounsVault&#45;&gt;ShwounsVault</title>
<path fill="none" stroke="green" d="M382.8,-850.85C366.48,-861.78 380.54,-873 424.97,-873 456.91,-873 473.16,-867.21 473.71,-859.89"/>
<polygon fill="green" stroke="green" points="476.75,-858.12 468.04,-852.08 471.08,-862.23 476.75,-858.12"/>
</g>
<!-- ShwounsDAOProposals -->
<g id="node58" class="node">
<title>ShwounsDAOProposals</title>
<ellipse fill="lightgray" stroke="lightgray" cx="684.98" cy="-1039" rx="100.48" ry="18"/>
<text xml:space="preserve" text-anchor="middle" x="684.98" y="-1033.95" font-family="Times,serif" font-size="14.00">ShwounsDAOProposals</text>
</g>
<!-- ShwounsDAOProposals&#45;&gt;Clones -->
<g id="edge60" class="edge">
<title>ShwounsDAOProposals&#45;&gt;Clones</title>
<path fill="none" stroke="orange" d="M785.9,-1039C814.4,-1039 844.14,-1039 867.91,-1039"/>
<polygon fill="orange" stroke="orange" points="867.9,-1042.5 877.9,-1039 867.9,-1035.5 867.9,-1042.5"/>
</g>
<!-- ShwounsDAOProposals&#45;&gt;ECDSA -->
<g id="edge59" class="edge">
<title>ShwounsDAOProposals&#45;&gt;ECDSA</title>
<path fill="none" stroke="orange" d="M738.52,-1023.35C753.79,-1018.46 770.4,-1012.82 785.46,-1007 817.33,-994.68 852.57,-978.5 878.29,-966.2"/>
<polygon fill="orange" stroke="orange" points="879.49,-969.51 886.98,-962.01 876.45,-963.2 879.49,-969.51"/>
</g>
<!-- ShwounsDAOProposals&#45;&gt;ShwounsDAOTypes -->
<g id="edge61" class="edge">
<title>ShwounsDAOProposals&#45;&gt;ShwounsDAOTypes</title>
<path fill="none" stroke="orange" d="M719.25,-1021.72C739.8,-1010.02 765.88,-993.23 785.46,-974 805.78,-954.05 803.2,-942.85 821.46,-921 841.63,-896.86 867.3,-872.03 886.69,-854.26"/>
<polygon fill="orange" stroke="orange" points="888.94,-856.95 894,-847.64 884.24,-851.76 888.94,-856.95"/>
</g>
<!-- ShwounsDAOProposals&#45;&gt;ShwounsDAOProposals -->
<g id="edge58" class="edge">
<title>ShwounsDAOProposals&#45;&gt;ShwounsDAOProposals</title>
<path fill="none" stroke="green" d="M644.31,-1055.66C635.27,-1065.62 648.83,-1075 684.98,-1075 706.44,-1075 719.94,-1071.69 725.47,-1066.92"/>
<polygon fill="green" stroke="green" points="728.96,-1067.23 725.62,-1057.18 721.97,-1067.12 728.96,-1067.23"/>
</g>
<!-- ShwounsDAOSignatures -->
<g id="node59" class="node">
<title>ShwounsDAOSignatures</title>
<ellipse fill="lightgray" stroke="lightgray" cx="424.97" cy="-961" rx="103.56" ry="18"/>
<text xml:space="preserve" text-anchor="middle" x="424.97" y="-955.95" font-family="Times,serif" font-size="14.00">ShwounsDAOSignatures</text>
</g>
<!-- ShwounsDAOSignatures&#45;&gt;ECDSA -->
<g id="edge64" class="edge">
<title>ShwounsDAOSignatures&#45;&gt;ECDSA</title>
<path fill="none" stroke="orange" d="M513.35,-970.73C586.27,-977.27 692.86,-983.18 785.46,-974 813.41,-971.23 844.25,-965.18 868.86,-959.62"/>
<polygon fill="orange" stroke="orange" points="869.63,-963.03 878.58,-957.37 868.04,-956.21 869.63,-963.03"/>
</g>
<!-- ShwounsDAOSignatures&#45;&gt;SignatureChecker -->
<g id="edge65" class="edge">
<title>ShwounsDAOSignatures&#45;&gt;SignatureChecker</title>
<path fill="none" stroke="orange" d="M510.45,-950.52C540.82,-946.76 574.93,-942.52 604.82,-938.82"/>
<polygon fill="orange" stroke="orange" points="605.06,-942.31 614.55,-937.61 604.2,-935.37 605.06,-942.31"/>
</g>
<!-- ShwounsDAOSignatures&#45;&gt;ShwounsDAOProposals -->
<g id="edge63" class="edge">
<title>ShwounsDAOSignatures&#45;&gt;ShwounsDAOProposals</title>
<path fill="none" stroke="orange" d="M478.18,-976.78C519.59,-989.3 577.58,-1006.83 621.45,-1020.1"/>
<polygon fill="orange" stroke="orange" points="620.25,-1023.39 630.83,-1022.93 622.28,-1016.69 620.25,-1023.39"/>
</g>
<!-- ShwounsDAOSignatures&#45;&gt;ShwounsDAOSignatures -->
<g id="edge62" class="edge">
<title>ShwounsDAOSignatures&#45;&gt;ShwounsDAOSignatures</title>
<path fill="none" stroke="green" d="M379.66,-977.29C368.74,-987.39 383.84,-997 424.97,-997 449.4,-997 464.64,-993.61 470.71,-988.74"/>
<polygon fill="green" stroke="green" points="474.21,-988.66 470.34,-978.8 467.22,-988.93 474.21,-988.66"/>
</g>
<!-- IGovernanceRewardsForDAO -->
<g id="node60" class="node">
<title>IGovernanceRewardsForDAO</title>
<ellipse fill="lightgray" stroke="lightgray" cx="424.97" cy="-387" rx="123.52" ry="18"/>
<text xml:space="preserve" text-anchor="middle" x="424.97" y="-381.95" font-family="Times,serif" font-size="14.00">IGovernanceRewardsForDAO</text>
</g>
<!-- ShwounsDAOLogic -->
<g id="node61" class="node">
<title>ShwounsDAOLogic</title>
<ellipse fill="lightgray" stroke="lightgray" cx="132.73" cy="-387" rx="86.15" ry="18"/>
<text xml:space="preserve" text-anchor="middle" x="132.73" y="-381.95" font-family="Times,serif" font-size="14.00">ShwounsDAOLogic</text>
</g>
<!-- ShwounsDAOLogic&#45;&gt;ShwounsDAOSignatures -->
<g id="edge68" class="edge">
<title>ShwounsDAOLogic&#45;&gt;ShwounsDAOSignatures</title>
<path fill="none" stroke="orange" d="M135.57,-405.21C143.38,-474.45 179.25,-725.31 301.46,-882 320.54,-906.47 349.45,-925.62 374.39,-938.94"/>
<polygon fill="orange" stroke="orange" points="372.6,-941.95 383.09,-943.41 375.8,-935.73 372.6,-941.95"/>
</g>
<!-- ShwounsDAOLogic&#45;&gt;IGovernanceRewardsForDAO -->
<g id="edge69" class="edge">
<title>ShwounsDAOLogic&#45;&gt;IGovernanceRewardsForDAO</title>
<path fill="none" stroke="orange" d="M219.24,-387C241.4,-387 265.8,-387 289.8,-387"/>
<polygon fill="orange" stroke="orange" points="289.65,-390.5 299.65,-387 289.65,-383.5 289.65,-390.5"/>
</g>
<!-- ShwounsDAOLogic&#45;&gt;ShwounsDAOLogic -->
<g id="edge67" class="edge">
<title>ShwounsDAOLogic&#45;&gt;ShwounsDAOLogic</title>
<path fill="none" stroke="green" d="M83.28,-402.17C68.3,-412.66 84.78,-423 132.73,-423 163.44,-423 181.25,-418.76 186.14,-412.95"/>
<polygon fill="green" stroke="green" points="189.43,-411.77 182.7,-403.59 182.86,-414.18 189.43,-411.77"/>
</g>
<!-- Storage -->
<g id="node62" class="node">
<title>Storage</title>
<ellipse fill="none" stroke="lightgray" cx="424.97" cy="-333" rx="39.07" ry="18"/>
<text xml:space="preserve" text-anchor="middle" x="424.97" y="-327.95" font-family="Times,serif" font-size="14.00">Storage</text>
</g>
<!-- ShwounsDAOLogic&#45;&gt;Storage -->
<g id="edge66" class="edge">
<title>ShwounsDAOLogic&#45;&gt;Storage</title>
<path fill="none" stroke="orange" d="M198.14,-375.02C252.41,-364.92 328.76,-350.71 377.3,-341.68"/>
<polygon fill="orange" stroke="orange" points="377.74,-345.16 386.93,-339.89 376.46,-338.28 377.74,-345.16"/>
</g>
<!-- key -->
<g id="node63" class="node">
<title>key</title>
<text xml:space="preserve" text-anchor="start" x="118.1" y="-2526.25" font-family="Times,serif" font-size="14.00">Internal Call</text>
<text xml:space="preserve" text-anchor="start" x="114.35" y="-2505.75" font-family="Times,serif" font-size="14.00">External Call</text>
<text xml:space="preserve" text-anchor="start" x="92.6" y="-2485.25" font-family="Times,serif" font-size="14.00">Defined Contract</text>
<text xml:space="preserve" text-anchor="start" x="79.1" y="-2464.75" font-family="Times,serif" font-size="14.00">Undefined Contract</text>
</g>
<!-- key2 -->
<g id="node64" class="node">
<title>key2</title>
<text xml:space="preserve" text-anchor="start" x="419.35" y="-2526" font-family="Times,serif" font-size="14.00">   </text>
<text xml:space="preserve" text-anchor="start" x="419.35" y="-2505.5" font-family="Times,serif" font-size="14.00">   </text>
<polygon fill="lightgray" stroke="none" points="414.97,-2479.25 414.97,-2499.75 434.97,-2499.75 434.97,-2479.25 414.97,-2479.25"/>
<text xml:space="preserve" text-anchor="start" x="419.35" y="-2485" font-family="Times,serif" font-size="14.00">   </text>
<polygon fill="none" stroke="lightgray" points="416.97,-2461.25 416.97,-2477.25 432.97,-2477.25 432.97,-2461.25 416.97,-2461.25"/>
</g>
<!-- key&#45;&gt;key2 -->
<g id="edge70" class="edge">
<title>key:e&#45;&gt;key2:w</title>
<path fill="none" stroke="green" d="M189.35,-2530.75C285.29,-2530.75 312.08,-2530.52 402.61,-2530.5"/>
<polygon fill="green" stroke="green" points="402.46,-2534 412.46,-2530.5 402.46,-2527 402.46,-2534"/>
</g>
<!-- key&#45;&gt;key2 -->
<g id="edge71" class="edge">
<title>key:e&#45;&gt;key2:w</title>
<path fill="none" stroke="orange" d="M189.35,-2510.25C285.29,-2510.25 312.08,-2510.02 402.61,-2510"/>
<polygon fill="orange" stroke="orange" points="402.46,-2513.5 412.46,-2510 402.46,-2506.5 402.46,-2513.5"/>
</g>
</g>
</svg>
