<?xml version="1.0" encoding="UTF-8" standalone="no"?>
<!DOCTYPE svg PUBLIC "-//W3C//DTD SVG 1.1//EN"
 "http://www.w3.org/Graphics/SVG/1.1/DTD/svg11.dtd">
<!-- Generated by graphviz version 15.0.0 (20260523.1842)
 -->
<!-- Title: G Pages: 1 -->
<svg width="2880pt" height="2880pt"
 viewBox="0.00 0.00 2880.00 2880.00" xmlns="http://www.w3.org/2000/svg" xmlns:xlink="http://www.w3.org/1999/xlink">
<g id="graph0" class="graph" transform="scale(0.337761 0.337761) rotate(0) translate(4 8522.74)">
<title>G</title>
<polygon fill="white" stroke="none" points="-4,4 -4,-8522.74 8522.74,-8522.74 8522.74,4 -4,4"/>
<!-- SVGRenderer -->
<g id="node1" class="node">
<title>SVGRenderer</title>
<ellipse fill="none" stroke="black" cx="66.19" cy="-8191" rx="63.12" ry="18"/>
<text xml:space="preserve" text-anchor="middle" x="66.19" y="-8185.95" font-family="Times,serif" font-size="14.00">SVGRenderer</text>
</g>
<!-- ISVGRenderer -->
<g id="node2" class="node">
<title>ISVGRenderer</title>
<ellipse fill="none" stroke="black" cx="66.19" cy="-6881" rx="66.19" ry="18"/>
<text xml:space="preserve" text-anchor="middle" x="66.19" y="-6875.95" font-family="Times,serif" font-size="14.00">ISVGRenderer</text>
</g>
<!-- SVGRenderer&#45;&gt;ISVGRenderer -->
<g id="edge1" class="edge">
<title>SVGRenderer&#45;&gt;ISVGRenderer</title>
<path fill="none" stroke="black" d="M66.19,-8172.98C66.19,-8034.23 66.19,-7089.2 66.19,-6910.96"/>
<polygon fill="black" stroke="black" points="69.69,-6910.99 66.19,-6900.99 62.69,-6910.99 69.69,-6910.99"/>
</g>
<!-- ShwounsArt -->
<g id="node3" class="node">
<title>ShwounsArt</title>
<ellipse fill="none" stroke="black" cx="210.19" cy="-8191" rx="56.98" ry="18"/>
<text xml:space="preserve" text-anchor="middle" x="210.19" y="-8185.95" font-family="Times,serif" font-size="14.00">ShwounsArt</text>
</g>
<!-- IShwounsArt -->
<g id="node4" class="node">
<title>IShwounsArt</title>
<ellipse fill="none" stroke="black" cx="210.19" cy="-6881" rx="60.05" ry="18"/>
<text xml:space="preserve" text-anchor="middle" x="210.19" y="-6875.95" font-family="Times,serif" font-size="14.00">IShwounsArt</text>
</g>
<!-- ShwounsArt&#45;&gt;IShwounsArt -->
<g id="edge2" class="edge">
<title>ShwounsArt&#45;&gt;IShwounsArt</title>
<path fill="none" stroke="black" d="M210.19,-8172.98C210.19,-8034.23 210.19,-7089.2 210.19,-6910.96"/>
<polygon fill="black" stroke="black" points="213.69,-6910.99 210.19,-6900.99 206.69,-6910.99 213.69,-6910.99"/>
</g>
<!-- ShwounsSeeder -->
<g id="node5" class="node">
<title>ShwounsSeeder</title>
<ellipse fill="none" stroke="black" cx="361.19" cy="-8191" rx="69.78" ry="18"/>
<text xml:space="preserve" text-anchor="middle" x="361.19" y="-8185.95" font-family="Times,serif" font-size="14.00">ShwounsSeeder</text>
</g>
<!-- IShwounsSeeder -->
<g id="node6" class="node">
<title>IShwounsSeeder</title>
<ellipse fill="none" stroke="black" cx="361.19" cy="-6881" rx="72.85" ry="18"/>
<text xml:space="preserve" text-anchor="middle" x="361.19" y="-6875.95" font-family="Times,serif" font-size="14.00">IShwounsSeeder</text>
</g>
<!-- ShwounsSeeder&#45;&gt;IShwounsSeeder -->
<g id="edge3" class="edge">
<title>ShwounsSeeder&#45;&gt;IShwounsSeeder</title>
<path fill="none" stroke="black" d="M361.19,-8172.98C361.19,-8034.23 361.19,-7089.2 361.19,-6910.96"/>
<polygon fill="black" stroke="black" points="364.69,-6910.99 361.19,-6900.99 357.69,-6910.99 364.69,-6910.99"/>
</g>
<!-- ShwounsDescriptor -->
<g id="node7" class="node">
<title>ShwounsDescriptor</title>
<ellipse fill="none" stroke="black" cx="834.19" cy="-5570" rx="83.6" ry="18"/>
<text xml:space="preserve" text-anchor="middle" x="834.19" y="-5564.95" font-family="Times,serif" font-size="14.00">ShwounsDescriptor</text>
</g>
<!-- IShwounsDescriptor -->
<g id="node8" class="node">
<title>IShwounsDescriptor</title>
<ellipse fill="none" stroke="black" cx="837.19" cy="-4259" rx="86.67" ry="18"/>
<text xml:space="preserve" text-anchor="middle" x="837.19" y="-4253.95" font-family="Times,serif" font-size="14.00">IShwounsDescriptor</text>
</g>
<!-- ShwounsDescriptor&#45;&gt;IShwounsDescriptor -->
<g id="edge4" class="edge">
<title>ShwounsDescriptor&#45;&gt;IShwounsDescriptor</title>
<path fill="none" stroke="black" d="M834.23,-5551.97C834.55,-5413.11 836.72,-4467.35 837.13,-4288.98"/>
<polygon fill="black" stroke="black" points="840.63,-4289.01 837.15,-4279 833.63,-4288.99 840.63,-4289.01"/>
</g>
<!-- GovernedOwnable -->
<g id="node9" class="node">
<title>GovernedOwnable</title>
<ellipse fill="none" stroke="black" cx="1255.19" cy="-4259" rx="80.52" ry="18"/>
<text xml:space="preserve" text-anchor="middle" x="1255.19" y="-4253.95" font-family="Times,serif" font-size="14.00">GovernedOwnable</text>
</g>
<!-- ShwounsDescriptor&#45;&gt;GovernedOwnable -->
<g id="edge5" class="edge">
<title>ShwounsDescriptor&#45;&gt;GovernedOwnable</title>
<path fill="none" stroke="black" d="M839.67,-5551.97C884.42,-5412.82 1189.76,-4463.46 1246.22,-4287.89"/>
<polygon fill="black" stroke="black" points="1249.52,-4289.07 1249.25,-4278.48 1242.86,-4286.92 1249.52,-4289.07"/>
</g>
<!-- IShwounsDescriptorMinimal -->
<g id="node70" class="node">
<title>IShwounsDescriptorMinimal</title>
<ellipse fill="none" stroke="black" cx="835.19" cy="-2949" rx="119.42" ry="18"/>
<text xml:space="preserve" text-anchor="middle" x="835.19" y="-2943.95" font-family="Times,serif" font-size="14.00">IShwounsDescriptorMinimal</text>
</g>
<!-- IShwounsDescriptor&#45;&gt;IShwounsDescriptorMinimal -->
<g id="edge39" class="edge">
<title>IShwounsDescriptor&#45;&gt;IShwounsDescriptorMinimal</title>
<path fill="none" stroke="black" d="M837.17,-4240.98C836.96,-4102.23 835.51,-3157.2 835.24,-2978.96"/>
<polygon fill="black" stroke="black" points="838.74,-2978.98 835.22,-2968.99 831.74,-2978.99 838.74,-2978.98"/>
</g>
<!-- Ownable -->
<g id="node57" class="node">
<title>Ownable</title>
<ellipse fill="none" stroke="black" cx="1255.19" cy="-2949" rx="44.19" ry="18"/>
<text xml:space="preserve" text-anchor="middle" x="1255.19" y="-2943.95" font-family="Times,serif" font-size="14.00">Ownable</text>
</g>
<!-- GovernedOwnable&#45;&gt;Ownable -->
<g id="edge23" class="edge">
<title>GovernedOwnable&#45;&gt;Ownable</title>
<path fill="none" stroke="black" d="M1255.19,-4240.98C1255.19,-4102.23 1255.19,-3157.2 1255.19,-2978.96"/>
<polygon fill="black" stroke="black" points="1258.69,-2978.99 1255.19,-2968.99 1251.69,-2978.99 1258.69,-2978.99"/>
</g>
<!-- Inflator -->
<g id="node10" class="node">
<title>Inflator</title>
<ellipse fill="none" stroke="black" cx="1255.19" cy="-8191" rx="38.56" ry="18"/>
<text xml:space="preserve" text-anchor="middle" x="1255.19" y="-8185.95" font-family="Times,serif" font-size="14.00">Inflator</text>
</g>
<!-- IInflator -->
<g id="node11" class="node">
<title>IInflator</title>
<ellipse fill="none" stroke="black" cx="1255.19" cy="-6881" rx="41.63" ry="18"/>
<text xml:space="preserve" text-anchor="middle" x="1255.19" y="-6875.95" font-family="Times,serif" font-size="14.00">IInflator</text>
</g>
<!-- Inflator&#45;&gt;IInflator -->
<g id="edge6" class="edge">
<title>Inflator&#45;&gt;IInflator</title>
<path fill="none" stroke="black" d="M1255.19,-8172.98C1255.19,-8034.23 1255.19,-7089.2 1255.19,-6910.96"/>
<polygon fill="black" stroke="black" points="1258.69,-6910.99 1255.19,-6900.99 1251.69,-6910.99 1258.69,-6910.99"/>
</g>
<!-- ShwounsToken -->
<g id="node12" class="node">
<title>ShwounsToken</title>
<ellipse fill="none" stroke="black" cx="713.19" cy="-8191" rx="68.24" ry="18"/>
<text xml:space="preserve" text-anchor="middle" x="713.19" y="-8185.95" font-family="Times,serif" font-size="14.00">ShwounsToken</text>
</g>
<!-- ShwounsToken&#45;&gt;GovernedOwnable -->
<g id="edge8" class="edge">
<title>ShwounsToken&#45;&gt;GovernedOwnable</title>
<path fill="none" stroke="black" d="M716.96,-8172.55C752.81,-8005.95 1035.12,-6678.33 1166.19,-5588 1228.57,-5069.11 1250.2,-4430.51 1254.39,-4288.75"/>
<polygon fill="black" stroke="black" points="1257.89,-4288.9 1254.68,-4278.8 1250.89,-4288.69 1257.89,-4288.9"/>
</g>
<!-- IShwounsToken -->
<g id="node13" class="node">
<title>IShwounsToken</title>
<ellipse fill="none" stroke="black" cx="523.19" cy="-6881" rx="71.31" ry="18"/>
<text xml:space="preserve" text-anchor="middle" x="523.19" y="-6875.95" font-family="Times,serif" font-size="14.00">IShwounsToken</text>
</g>
<!-- ShwounsToken&#45;&gt;IShwounsToken -->
<g id="edge7" class="edge">
<title>ShwounsToken&#45;&gt;IShwounsToken</title>
<path fill="none" stroke="black" d="M710.72,-8172.98C690.56,-8034.16 553.15,-7088.25 527.36,-6910.69"/>
<polygon fill="black" stroke="black" points="530.85,-6910.37 525.95,-6900.97 523.92,-6911.37 530.85,-6910.37"/>
</g>
<!-- ERC721Checkpointable -->
<g id="node14" class="node">
<title>ERC721Checkpointable</title>
<ellipse fill="none" stroke="black" cx="713.19" cy="-6881" rx="100.48" ry="18"/>
<text xml:space="preserve" text-anchor="middle" x="713.19" y="-6875.95" font-family="Times,serif" font-size="14.00">ERC721Checkpointable</text>
</g>
<!-- ShwounsToken&#45;&gt;ERC721Checkpointable -->
<g id="edge9" class="edge">
<title>ShwounsToken&#45;&gt;ERC721Checkpointable</title>
<path fill="none" stroke="black" d="M713.19,-8172.98C713.19,-8034.23 713.19,-7089.2 713.19,-6910.96"/>
<polygon fill="black" stroke="black" points="716.69,-6910.99 713.19,-6900.99 709.69,-6910.99 716.69,-6910.99"/>
</g>
<!-- IERC721 -->
<g id="node73" class="node">
<title>IERC721</title>
<ellipse fill="none" stroke="black" cx="593.19" cy="-2949" rx="45.72" ry="18"/>
<text xml:space="preserve" text-anchor="middle" x="593.19" y="-2943.95" font-family="Times,serif" font-size="14.00">IERC721</text>
</g>
<!-- IShwounsToken&#45;&gt;IERC721 -->
<g id="edge38" class="edge">
<title>IShwounsToken&#45;&gt;IERC721</title>
<path fill="none" stroke="black" d="M523.1,-6862.72C522.27,-6695.02 516.56,-5339.17 542.19,-4241 554.01,-3734.9 584.63,-3117.77 591.72,-2978.73"/>
<polygon fill="black" stroke="black" points="595.2,-2979.14 592.21,-2968.97 588.21,-2978.78 595.2,-2979.14"/>
</g>
<!-- ERC721Enumerable -->
<g id="node77" class="node">
<title>ERC721Enumerable</title>
<ellipse fill="none" stroke="black" cx="645.19" cy="-5570" rx="87.69" ry="18"/>
<text xml:space="preserve" text-anchor="middle" x="645.19" y="-5564.95" font-family="Times,serif" font-size="14.00">ERC721Enumerable</text>
</g>
<!-- ERC721Checkpointable&#45;&gt;ERC721Enumerable -->
<g id="edge44" class="edge">
<title>ERC721Checkpointable&#45;&gt;ERC721Enumerable</title>
<path fill="none" stroke="black" d="M712.31,-6862.97C705.1,-6724.11 655.97,-5778.35 646.7,-5599.98"/>
<polygon fill="black" stroke="black" points="650.2,-5599.8 646.18,-5590 643.2,-5600.17 650.2,-5599.8"/>
</g>
<!-- IAuthed -->
<g id="node15" class="node">
<title>IAuthed</title>
<ellipse fill="none" stroke="black" cx="1527.19" cy="-8191" rx="41.12" ry="18"/>
<text xml:space="preserve" text-anchor="middle" x="1527.19" y="-8185.95" font-family="Times,serif" font-size="14.00">IAuthed</text>
</g>
<!-- ShwounsAuctionHouse -->
<g id="node16" class="node">
<title>ShwounsAuctionHouse</title>
<ellipse fill="none" stroke="black" cx="1858.19" cy="-8191" rx="97.93" ry="18"/>
<text xml:space="preserve" text-anchor="middle" x="1858.19" y="-8185.95" font-family="Times,serif" font-size="14.00">ShwounsAuctionHouse</text>
</g>
<!-- IShwounsAuctionHouse -->
<g id="node17" class="node">
<title>IShwounsAuctionHouse</title>
<ellipse fill="none" stroke="black" cx="1416.19" cy="-6881" rx="101" ry="18"/>
<text xml:space="preserve" text-anchor="middle" x="1416.19" y="-6875.95" font-family="Times,serif" font-size="14.00">IShwounsAuctionHouse</text>
</g>
<!-- ShwounsAuctionHouse&#45;&gt;IShwounsAuctionHouse -->
<g id="edge10" class="edge">
<title>ShwounsAuctionHouse&#45;&gt;IShwounsAuctionHouse</title>
<path fill="none" stroke="black" d="M1852.44,-8172.98C1805.46,-8033.94 1484.9,-7085.31 1425.61,-6909.87"/>
<polygon fill="black" stroke="black" points="1428.95,-6908.81 1422.43,-6900.46 1422.32,-6911.05 1428.95,-6908.81"/>
</g>
<!-- PausableUpgradeable -->
<g id="node18" class="node">
<title>PausableUpgradeable</title>
<ellipse fill="none" stroke="black" cx="1626.19" cy="-6881" rx="90.76" ry="18"/>
<text xml:space="preserve" text-anchor="middle" x="1626.19" y="-6875.95" font-family="Times,serif" font-size="14.00">PausableUpgradeable</text>
</g>
<!-- ShwounsAuctionHouse&#45;&gt;PausableUpgradeable -->
<g id="edge11" class="edge">
<title>ShwounsAuctionHouse&#45;&gt;PausableUpgradeable</title>
<path fill="none" stroke="black" d="M1855.18,-8172.98C1830.55,-8034.16 1662.78,-7088.25 1631.28,-6910.69"/>
<polygon fill="black" stroke="black" points="1634.75,-6910.2 1629.56,-6900.97 1627.86,-6911.42 1634.75,-6910.2"/>
</g>
<!-- ReentrancyGuardUpgradeable -->
<g id="node19" class="node">
<title>ReentrancyGuardUpgradeable</title>
<ellipse fill="none" stroke="black" cx="1858.19" cy="-6881" rx="123" ry="18"/>
<text xml:space="preserve" text-anchor="middle" x="1858.19" y="-6875.95" font-family="Times,serif" font-size="14.00">ReentrancyGuardUpgradeable</text>
</g>
<!-- ShwounsAuctionHouse&#45;&gt;ReentrancyGuardUpgradeable -->
<g id="edge12" class="edge">
<title>ShwounsAuctionHouse&#45;&gt;ReentrancyGuardUpgradeable</title>
<path fill="none" stroke="black" d="M1858.19,-8172.98C1858.19,-8034.23 1858.19,-7089.2 1858.19,-6910.96"/>
<polygon fill="black" stroke="black" points="1861.69,-6910.99 1858.19,-6900.99 1854.69,-6910.99 1861.69,-6910.99"/>
</g>
<!-- OwnableUpgradeable -->
<g id="node20" class="node">
<title>OwnableUpgradeable</title>
<ellipse fill="none" stroke="black" cx="2090.19" cy="-6881" rx="91.27" ry="18"/>
<text xml:space="preserve" text-anchor="middle" x="2090.19" y="-6875.95" font-family="Times,serif" font-size="14.00">OwnableUpgradeable</text>
</g>
<!-- ShwounsAuctionHouse&#45;&gt;OwnableUpgradeable -->
<g id="edge13" class="edge">
<title>ShwounsAuctionHouse&#45;&gt;OwnableUpgradeable</title>
<path fill="none" stroke="black" d="M1861.21,-8172.98C1885.84,-8034.16 2053.61,-7088.25 2085.1,-6910.69"/>
<polygon fill="black" stroke="black" points="2088.53,-6911.42 2086.83,-6900.97 2081.64,-6910.2 2088.53,-6911.42"/>
</g>
<!-- UUPSUpgradeable -->
<g id="node21" class="node">
<title>UUPSUpgradeable</title>
<ellipse fill="none" stroke="black" cx="2281.19" cy="-6881" rx="81.55" ry="18"/>
<text xml:space="preserve" text-anchor="middle" x="2281.19" y="-6875.95" font-family="Times,serif" font-size="14.00">UUPSUpgradeable</text>
</g>
<!-- ShwounsAuctionHouse&#45;&gt;UUPSUpgradeable -->
<g id="edge14" class="edge">
<title>ShwounsAuctionHouse&#45;&gt;UUPSUpgradeable</title>
<path fill="none" stroke="black" d="M1863.7,-8172.98C1908.66,-8033.94 2215.44,-7085.31 2272.18,-6909.87"/>
<polygon fill="black" stroke="black" points="2275.48,-6911.05 2275.22,-6900.46 2268.82,-6908.9 2275.48,-6911.05"/>
</g>
<!-- ApprovalRegistry -->
<g id="node22" class="node">
<title>ApprovalRegistry</title>
<ellipse fill="none" stroke="black" cx="1290.19" cy="-5570" rx="76.94" ry="18"/>
<text xml:space="preserve" text-anchor="middle" x="1290.19" y="-5564.95" font-family="Times,serif" font-size="14.00">ApprovalRegistry</text>
</g>
<!-- ApprovalRegistry&#45;&gt;GovernedOwnable -->
<g id="edge15" class="edge">
<title>ApprovalRegistry&#45;&gt;GovernedOwnable</title>
<path fill="none" stroke="black" d="M1289.74,-5551.97C1286.03,-5413.11 1260.74,-4467.35 1255.97,-4288.98"/>
<polygon fill="black" stroke="black" points="1259.47,-4288.9 1255.7,-4279 1252.47,-4289.09 1259.47,-4288.9"/>
</g>
<!-- IDAOLogicForRewards -->
<g id="node23" class="node">
<title>IDAOLogicForRewards</title>
<ellipse fill="none" stroke="black" cx="2775.19" cy="-8191" rx="100.48" ry="18"/>
<text xml:space="preserve" text-anchor="middle" x="2775.19" y="-8185.95" font-family="Times,serif" font-size="14.00">IDAOLogicForRewards</text>
</g>
<!-- GovernanceRewards -->
<g id="node24" class="node">
<title>GovernanceRewards</title>
<ellipse fill="none" stroke="black" cx="1681.19" cy="-5570" rx="87.69" ry="18"/>
<text xml:space="preserve" text-anchor="middle" x="1681.19" y="-5564.95" font-family="Times,serif" font-size="14.00">GovernanceRewards</text>
</g>
<!-- GovernanceRewards&#45;&gt;GovernedOwnable -->
<g id="edge16" class="edge">
<title>GovernanceRewards&#45;&gt;GovernedOwnable</title>
<path fill="none" stroke="black" d="M1675.65,-5551.97C1630.37,-5412.82 1321.41,-4463.46 1264.27,-4287.89"/>
<polygon fill="black" stroke="black" points="1267.63,-4286.9 1261.21,-4278.48 1260.97,-4289.07 1267.63,-4286.9"/>
</g>
<!-- ERC721Holder -->
<g id="node25" class="node">
<title>ERC721Holder</title>
<ellipse fill="none" stroke="black" cx="1834.19" cy="-4259" rx="68.24" ry="18"/>
<text xml:space="preserve" text-anchor="middle" x="1834.19" y="-4253.95" font-family="Times,serif" font-size="14.00">ERC721Holder</text>
</g>
<!-- GovernanceRewards&#45;&gt;ERC721Holder -->
<g id="edge17" class="edge">
<title>GovernanceRewards&#45;&gt;ERC721Holder</title>
<path fill="none" stroke="black" d="M1683.18,-5551.97C1699.42,-5413.04 1810.07,-4466.41 1830.84,-4288.72"/>
<polygon fill="black" stroke="black" points="1834.29,-4289.33 1831.97,-4278.99 1827.34,-4288.52 1834.29,-4289.33"/>
</g>
<!-- ERC1155Holder -->
<g id="node26" class="node">
<title>ERC1155Holder</title>
<ellipse fill="none" stroke="black" cx="1675.19" cy="-4259" rx="72.85" ry="18"/>
<text xml:space="preserve" text-anchor="middle" x="1675.19" y="-4253.95" font-family="Times,serif" font-size="14.00">ERC1155Holder</text>
</g>
<!-- GovernanceRewards&#45;&gt;ERC1155Holder -->
<g id="edge18" class="edge">
<title>GovernanceRewards&#45;&gt;ERC1155Holder</title>
<path fill="none" stroke="black" d="M1681.12,-5551.97C1680.48,-5413.11 1676.14,-4467.35 1675.33,-4288.98"/>
<polygon fill="black" stroke="black" points="1678.83,-4288.99 1675.28,-4279 1671.83,-4289.02 1678.83,-4288.99"/>
</g>
<!-- GovernanceIncentivesNFT -->
<g id="node27" class="node">
<title>GovernanceIncentivesNFT</title>
<ellipse fill="none" stroke="black" cx="1046.19" cy="-5570" rx="110.72" ry="18"/>
<text xml:space="preserve" text-anchor="middle" x="1046.19" y="-5564.95" font-family="Times,serif" font-size="14.00">GovernanceIncentivesNFT</text>
</g>
<!-- GovernanceIncentivesNFT&#45;&gt;GovernedOwnable -->
<g id="edge20" class="edge">
<title>GovernanceIncentivesNFT&#45;&gt;GovernedOwnable</title>
<path fill="none" stroke="black" d="M1048.91,-5551.97C1071.1,-5413.04 1222.24,-4466.41 1250.61,-4288.72"/>
<polygon fill="black" stroke="black" points="1254.04,-4289.41 1252.16,-4278.98 1247.13,-4288.31 1254.04,-4289.41"/>
</g>
<!-- ERC721 -->
<g id="node28" class="node">
<title>ERC721</title>
<ellipse fill="none" stroke="black" cx="1047.19" cy="-4259" rx="42.65" ry="18"/>
<text xml:space="preserve" text-anchor="middle" x="1047.19" y="-4253.95" font-family="Times,serif" font-size="14.00">ERC721</text>
</g>
<!-- GovernanceIncentivesNFT&#45;&gt;ERC721 -->
<g id="edge19" class="edge">
<title>GovernanceIncentivesNFT&#45;&gt;ERC721</title>
<path fill="none" stroke="black" d="M1046.21,-5551.97C1046.31,-5413.11 1047.04,-4467.35 1047.17,-4288.98"/>
<polygon fill="black" stroke="black" points="1050.67,-4289 1047.18,-4279 1043.67,-4289 1050.67,-4289"/>
</g>
<!-- ERC721&#45;&gt;IERC721 -->
<g id="edge42" class="edge">
<title>ERC721&#45;&gt;IERC721</title>
<path fill="none" stroke="black" d="M1041.29,-4240.98C993.03,-4101.94 663.76,-3153.31 602.87,-2977.87"/>
<polygon fill="black" stroke="black" points="606.18,-2976.75 599.6,-2968.45 599.57,-2979.05 606.18,-2976.75"/>
</g>
<!-- Context -->
<g id="node74" class="node">
<title>Context</title>
<ellipse fill="none" stroke="black" cx="1489.19" cy="-1638" rx="40.09" ry="18"/>
<text xml:space="preserve" text-anchor="middle" x="1489.19" y="-1632.95" font-family="Times,serif" font-size="14.00">Context</text>
</g>
<!-- ERC721&#45;&gt;Context -->
<g id="edge40" class="edge">
<title>ERC721&#45;&gt;Context</title>
<path fill="none" stroke="black" d="M1048.54,-4240.69C1057.61,-4126.02 1112.13,-3463.88 1202.19,-2931 1288.7,-2419.17 1446.03,-1804.52 1481.82,-1667.13"/>
<polygon fill="black" stroke="black" points="1485.11,-1668.37 1484.25,-1657.81 1478.34,-1666.6 1485.11,-1668.37"/>
</g>
<!-- ERC165 -->
<g id="node75" class="node">
<title>ERC165</title>
<ellipse fill="none" stroke="black" cx="2157.19" cy="-2949" rx="42.65" ry="18"/>
<text xml:space="preserve" text-anchor="middle" x="2157.19" y="-2943.95" font-family="Times,serif" font-size="14.00">ERC165</text>
</g>
<!-- ERC721&#45;&gt;ERC165 -->
<g id="edge41" class="edge">
<title>ERC721&#45;&gt;ERC165</title>
<path fill="none" stroke="black" d="M1060.83,-4241.93C1176.59,-4105.53 1993.87,-3142.46 2136.11,-2974.84"/>
<polygon fill="black" stroke="black" points="2138.66,-2977.25 2142.47,-2967.36 2133.33,-2972.72 2138.66,-2977.25"/>
</g>
<!-- IERC721Metadata -->
<g id="node76" class="node">
<title>IERC721Metadata</title>
<ellipse fill="none" stroke="black" cx="1053.19" cy="-2949" rx="80.52" ry="18"/>
<text xml:space="preserve" text-anchor="middle" x="1053.19" y="-2943.95" font-family="Times,serif" font-size="14.00">IERC721Metadata</text>
</g>
<!-- ERC721&#45;&gt;IERC721Metadata -->
<g id="edge43" class="edge">
<title>ERC721&#45;&gt;IERC721Metadata</title>
<path fill="none" stroke="black" d="M1047.27,-4240.98C1047.91,-4102.23 1052.24,-3157.2 1053.06,-2978.96"/>
<polygon fill="black" stroke="black" points="1056.56,-2979 1053.11,-2968.99 1049.56,-2978.97 1056.56,-2979"/>
</g>
<!-- SSTORE2 -->
<g id="node29" class="node">
<title>SSTORE2</title>
<ellipse fill="none" stroke="black" cx="2943.19" cy="-8191" rx="49.82" ry="18"/>
<text xml:space="preserve" text-anchor="middle" x="2943.19" y="-8185.95" font-family="Times,serif" font-size="14.00">SSTORE2</text>
</g>
<!-- NFTDescriptorV2 -->
<g id="node30" class="node">
<title>NFTDescriptorV2</title>
<ellipse fill="none" stroke="black" cx="3089.19" cy="-8191" rx="78.48" ry="18"/>
<text xml:space="preserve" text-anchor="middle" x="3089.19" y="-8185.95" font-family="Times,serif" font-size="14.00">NFTDescriptorV2</text>
</g>
<!-- Inflate -->
<g id="node31" class="node">
<title>Inflate</title>
<ellipse fill="none" stroke="black" cx="3220.19" cy="-8191" rx="34.97" ry="18"/>
<text xml:space="preserve" text-anchor="middle" x="3220.19" y="-8185.95" font-family="Times,serif" font-size="14.00">Inflate</text>
</g>
<!-- ShwounsDAOProposals -->
<g id="node32" class="node">
<title>ShwounsDAOProposals</title>
<ellipse fill="none" stroke="black" cx="3373.19" cy="-8191" rx="100.48" ry="18"/>
<text xml:space="preserve" text-anchor="middle" x="3373.19" y="-8185.95" font-family="Times,serif" font-size="14.00">ShwounsDAOProposals</text>
</g>
<!-- IShwounsTokenLike -->
<g id="node33" class="node">
<title>IShwounsTokenLike</title>
<ellipse fill="none" stroke="black" cx="3580.19" cy="-8191" rx="88.2" ry="18"/>
<text xml:space="preserve" text-anchor="middle" x="3580.19" y="-8185.95" font-family="Times,serif" font-size="14.00">IShwounsTokenLike</text>
</g>
<!-- ShwounsDAOEvents -->
<g id="node34" class="node">
<title>ShwounsDAOEvents</title>
<ellipse fill="none" stroke="black" cx="2470.19" cy="-6881" rx="89.74" ry="18"/>
<text xml:space="preserve" text-anchor="middle" x="2470.19" y="-6875.95" font-family="Times,serif" font-size="14.00">ShwounsDAOEvents</text>
</g>
<!-- ShwounsDAOTypes -->
<g id="node35" class="node">
<title>ShwounsDAOTypes</title>
<ellipse fill="none" stroke="black" cx="2671.19" cy="-5570" rx="87.18" ry="18"/>
<text xml:space="preserve" text-anchor="middle" x="2671.19" y="-5564.95" font-family="Times,serif" font-size="14.00">ShwounsDAOTypes</text>
</g>
<!-- ShwounsDAOStorage -->
<g id="node36" class="node">
<title>ShwounsDAOStorage</title>
<ellipse fill="none" stroke="black" cx="2671.19" cy="-6881" rx="92.81" ry="18"/>
<text xml:space="preserve" text-anchor="middle" x="2671.19" y="-6875.95" font-family="Times,serif" font-size="14.00">ShwounsDAOStorage</text>
</g>
<!-- ShwounsDAOStorage&#45;&gt;ShwounsDAOTypes -->
<g id="edge21" class="edge">
<title>ShwounsDAOStorage&#45;&gt;ShwounsDAOTypes</title>
<path fill="none" stroke="black" d="M2671.19,-6862.97C2671.19,-6724.11 2671.19,-5778.35 2671.19,-5599.98"/>
<polygon fill="black" stroke="black" points="2674.69,-5600 2671.19,-5590 2667.69,-5600 2674.69,-5600"/>
</g>
<!-- ShwounsDAOSignatures -->
<g id="node37" class="node">
<title>ShwounsDAOSignatures</title>
<ellipse fill="none" stroke="black" cx="3790.19" cy="-8191" rx="103.56" ry="18"/>
<text xml:space="preserve" text-anchor="middle" x="3790.19" y="-8185.95" font-family="Times,serif" font-size="14.00">ShwounsDAOSignatures</text>
</g>
<!-- ShwounsDAOQuorum -->
<g id="node38" class="node">
<title>ShwounsDAOQuorum</title>
<ellipse fill="none" stroke="black" cx="4007.19" cy="-8191" rx="95.88" ry="18"/>
<text xml:space="preserve" text-anchor="middle" x="4007.19" y="-8185.95" font-family="Times,serif" font-size="14.00">ShwounsDAOQuorum</text>
</g>
<!-- IOwnableLike -->
<g id="node39" class="node">
<title>IOwnableLike</title>
<ellipse fill="none" stroke="black" cx="4185.19" cy="-8191" rx="64.15" ry="18"/>
<text xml:space="preserve" text-anchor="middle" x="4185.19" y="-8185.95" font-family="Times,serif" font-size="14.00">IOwnableLike</text>
</g>
<!-- IGovernedLike -->
<g id="node40" class="node">
<title>IGovernedLike</title>
<ellipse fill="none" stroke="black" cx="4334.19" cy="-8191" rx="67.22" ry="18"/>
<text xml:space="preserve" text-anchor="middle" x="4334.19" y="-8185.95" font-family="Times,serif" font-size="14.00">IGovernedLike</text>
</g>
<!-- ITokenLike -->
<g id="node41" class="node">
<title>ITokenLike</title>
<ellipse fill="none" stroke="black" cx="4474.19" cy="-8191" rx="54.42" ry="18"/>
<text xml:space="preserve" text-anchor="middle" x="4474.19" y="-8185.95" font-family="Times,serif" font-size="14.00">ITokenLike</text>
</g>
<!-- IAuctionLike -->
<g id="node42" class="node">
<title>IAuctionLike</title>
<ellipse fill="none" stroke="black" cx="4607.19" cy="-8191" rx="60.56" ry="18"/>
<text xml:space="preserve" text-anchor="middle" x="4607.19" y="-8185.95" font-family="Times,serif" font-size="14.00">IAuctionLike</text>
</g>
<!-- IVaultRegistryLike -->
<g id="node43" class="node">
<title>IVaultRegistryLike</title>
<ellipse fill="none" stroke="black" cx="4767.19" cy="-8191" rx="81.55" ry="18"/>
<text xml:space="preserve" text-anchor="middle" x="4767.19" y="-8185.95" font-family="Times,serif" font-size="14.00">IVaultRegistryLike</text>
</g>
<!-- IRewardsLike -->
<g id="node44" class="node">
<title>IRewardsLike</title>
<ellipse fill="none" stroke="black" cx="4930.19" cy="-8191" rx="63.12" ry="18"/>
<text xml:space="preserve" text-anchor="middle" x="4930.19" y="-8185.95" font-family="Times,serif" font-size="14.00">IRewardsLike</text>
</g>
<!-- IGiLike -->
<g id="node45" class="node">
<title>IGiLike</title>
<ellipse fill="none" stroke="black" cx="5051.19" cy="-8191" rx="40.09" ry="18"/>
<text xml:space="preserve" text-anchor="middle" x="5051.19" y="-8185.95" font-family="Times,serif" font-size="14.00">IGiLike</text>
</g>
<!-- IApprovalRegistryLike -->
<g id="node46" class="node">
<title>IApprovalRegistryLike</title>
<ellipse fill="none" stroke="black" cx="5206.19" cy="-8191" rx="96.9" ry="18"/>
<text xml:space="preserve" text-anchor="middle" x="5206.19" y="-8185.95" font-family="Times,serif" font-size="14.00">IApprovalRegistryLike</text>
</g>
<!-- IDescriptorLike -->
<g id="node47" class="node">
<title>IDescriptorLike</title>
<ellipse fill="none" stroke="black" cx="5391.19" cy="-8191" rx="69.78" ry="18"/>
<text xml:space="preserve" text-anchor="middle" x="5391.19" y="-8185.95" font-family="Times,serif" font-size="14.00">IDescriptorLike</text>
</g>
<!-- IArtLike -->
<g id="node48" class="node">
<title>IArtLike</title>
<ellipse fill="none" stroke="black" cx="5522.19" cy="-8191" rx="43.16" ry="18"/>
<text xml:space="preserve" text-anchor="middle" x="5522.19" y="-8185.95" font-family="Times,serif" font-size="14.00">IArtLike</text>
</g>
<!-- IVaultImplLike -->
<g id="node49" class="node">
<title>IVaultImplLike</title>
<ellipse fill="none" stroke="black" cx="5651.19" cy="-8191" rx="68.24" ry="18"/>
<text xml:space="preserve" text-anchor="middle" x="5651.19" y="-8185.95" font-family="Times,serif" font-size="14.00">IVaultImplLike</text>
</g>
<!-- IEscrowImplLike -->
<g id="node50" class="node">
<title>IEscrowImplLike</title>
<ellipse fill="none" stroke="black" cx="5814.19" cy="-8191" rx="76.43" ry="18"/>
<text xml:space="preserve" text-anchor="middle" x="5814.19" y="-8185.95" font-family="Times,serif" font-size="14.00">IEscrowImplLike</text>
</g>
<!-- IDAOLike -->
<g id="node51" class="node">
<title>IDAOLike</title>
<ellipse fill="none" stroke="black" cx="5959.19" cy="-8191" rx="50.84" ry="18"/>
<text xml:space="preserve" text-anchor="middle" x="5959.19" y="-8185.95" font-family="Times,serif" font-size="14.00">IDAOLike</text>
</g>
<!-- IAuthRegistryLike -->
<g id="node52" class="node">
<title>IAuthRegistryLike</title>
<ellipse fill="none" stroke="black" cx="6108.19" cy="-8191" rx="80.52" ry="18"/>
<text xml:space="preserve" text-anchor="middle" x="6108.19" y="-8185.95" font-family="Times,serif" font-size="14.00">IAuthRegistryLike</text>
</g>
<!-- Bootstrap -->
<g id="node53" class="node">
<title>Bootstrap</title>
<ellipse fill="none" stroke="black" cx="6253.19" cy="-8191" rx="46.75" ry="18"/>
<text xml:space="preserve" text-anchor="middle" x="6253.19" y="-8185.95" font-family="Times,serif" font-size="14.00">Bootstrap</text>
</g>
<!-- IGovernanceAuthRegistry -->
<g id="node54" class="node">
<title>IGovernanceAuthRegistry</title>
<ellipse fill="none" stroke="black" cx="6423.19" cy="-6881" rx="108.16" ry="18"/>
<text xml:space="preserve" text-anchor="middle" x="6423.19" y="-6875.95" font-family="Times,serif" font-size="14.00">IGovernanceAuthRegistry</text>
</g>
<!-- IDAOLogicExecutor -->
<g id="node55" class="node">
<title>IDAOLogicExecutor</title>
<ellipse fill="none" stroke="black" cx="6635.19" cy="-8191" rx="88.71" ry="18"/>
<text xml:space="preserve" text-anchor="middle" x="6635.19" y="-8185.95" font-family="Times,serif" font-size="14.00">IDAOLogicExecutor</text>
</g>
<!-- GovernanceAuthRegistry -->
<g id="node56" class="node">
<title>GovernanceAuthRegistry</title>
<ellipse fill="none" stroke="black" cx="6423.19" cy="-8191" rx="105.09" ry="18"/>
<text xml:space="preserve" text-anchor="middle" x="6423.19" y="-8185.95" font-family="Times,serif" font-size="14.00">GovernanceAuthRegistry</text>
</g>
<!-- GovernanceAuthRegistry&#45;&gt;IGovernanceAuthRegistry -->
<g id="edge22" class="edge">
<title>GovernanceAuthRegistry&#45;&gt;IGovernanceAuthRegistry</title>
<path fill="none" stroke="black" d="M6423.19,-8172.98C6423.19,-8034.23 6423.19,-7089.2 6423.19,-6910.96"/>
<polygon fill="black" stroke="black" points="6426.69,-6910.99 6423.19,-6900.99 6419.69,-6910.99 6426.69,-6910.99"/>
</g>
<!-- IGovernanceRewardsForDAO -->
<g id="node58" class="node">
<title>IGovernanceRewardsForDAO</title>
<ellipse fill="none" stroke="black" cx="6865.19" cy="-8191" rx="123.52" ry="18"/>
<text xml:space="preserve" text-anchor="middle" x="6865.19" y="-8185.95" font-family="Times,serif" font-size="14.00">IGovernanceRewardsForDAO</text>
</g>
<!-- ShwounsDAOLogic -->
<g id="node59" class="node">
<title>ShwounsDAOLogic</title>
<ellipse fill="none" stroke="black" cx="2570.19" cy="-8191" rx="86.15" ry="18"/>
<text xml:space="preserve" text-anchor="middle" x="2570.19" y="-8185.95" font-family="Times,serif" font-size="14.00">ShwounsDAOLogic</text>
</g>
<!-- ShwounsDAOLogic&#45;&gt;UUPSUpgradeable -->
<g id="edge27" class="edge">
<title>ShwounsDAOLogic&#45;&gt;UUPSUpgradeable</title>
<path fill="none" stroke="black" d="M2566.43,-8172.98C2535.76,-8034.16 2326.76,-7088.25 2287.53,-6910.69"/>
<polygon fill="black" stroke="black" points="2290.96,-6909.96 2285.38,-6900.95 2284.12,-6911.47 2290.96,-6909.96"/>
</g>
<!-- ShwounsDAOLogic&#45;&gt;ShwounsDAOEvents -->
<g id="edge25" class="edge">
<title>ShwounsDAOLogic&#45;&gt;ShwounsDAOEvents</title>
<path fill="none" stroke="black" d="M2568.89,-8172.98C2558.28,-8034.16 2485.96,-7088.25 2472.39,-6910.69"/>
<polygon fill="black" stroke="black" points="2475.9,-6910.69 2471.65,-6900.98 2468.92,-6911.22 2475.9,-6910.69"/>
</g>
<!-- ShwounsDAOLogic&#45;&gt;ShwounsDAOStorage -->
<g id="edge24" class="edge">
<title>ShwounsDAOLogic&#45;&gt;ShwounsDAOStorage</title>
<path fill="none" stroke="black" d="M2571.51,-8172.98C2582.23,-8034.16 2655.27,-7088.25 2668.98,-6910.69"/>
<polygon fill="black" stroke="black" points="2672.45,-6911.22 2669.73,-6900.98 2665.47,-6910.68 2672.45,-6911.22"/>
</g>
<!-- Initializable -->
<g id="node60" class="node">
<title>Initializable</title>
<ellipse fill="none" stroke="black" cx="2837.19" cy="-6881" rx="54.93" ry="18"/>
<text xml:space="preserve" text-anchor="middle" x="2837.19" y="-6875.95" font-family="Times,serif" font-size="14.00">Initializable</text>
</g>
<!-- ShwounsDAOLogic&#45;&gt;Initializable -->
<g id="edge26" class="edge">
<title>ShwounsDAOLogic&#45;&gt;Initializable</title>
<path fill="none" stroke="black" d="M2573.67,-8172.98C2602.04,-8034.01 2795.5,-7086.26 2831.45,-6910.14"/>
<polygon fill="black" stroke="black" points="2834.85,-6911 2833.42,-6900.51 2827.99,-6909.6 2834.85,-6911"/>
</g>
<!-- IProposalEscrow -->
<g id="node61" class="node">
<title>IProposalEscrow</title>
<ellipse fill="none" stroke="black" cx="7080.19" cy="-8191" rx="73.87" ry="18"/>
<text xml:space="preserve" text-anchor="middle" x="7080.19" y="-8185.95" font-family="Times,serif" font-size="14.00">IProposalEscrow</text>
</g>
<!-- ProposalEscrow -->
<g id="node62" class="node">
<title>ProposalEscrow</title>
<ellipse fill="none" stroke="black" cx="1857.19" cy="-5570" rx="70.8" ry="18"/>
<text xml:space="preserve" text-anchor="middle" x="1857.19" y="-5564.95" font-family="Times,serif" font-size="14.00">ProposalEscrow</text>
</g>
<!-- ProposalEscrow&#45;&gt;ERC721Holder -->
<g id="edge28" class="edge">
<title>ProposalEscrow&#45;&gt;ERC721Holder</title>
<path fill="none" stroke="black" d="M1856.89,-5551.97C1854.45,-5413.11 1837.84,-4467.35 1834.7,-4288.98"/>
<polygon fill="black" stroke="black" points="1838.2,-4288.94 1834.53,-4279 1831.2,-4289.06 1838.2,-4288.94"/>
</g>
<!-- ProposalEscrow&#45;&gt;ERC1155Holder -->
<g id="edge29" class="edge">
<title>ProposalEscrow&#45;&gt;ERC1155Holder</title>
<path fill="none" stroke="black" d="M1854.83,-5551.97C1835.51,-5413.04 1703.89,-4466.41 1679.19,-4288.72"/>
<polygon fill="black" stroke="black" points="1682.68,-4288.41 1677.83,-4278.99 1675.74,-4289.37 1682.68,-4288.41"/>
</g>
<!-- ShwounsVaultRegistry -->
<g id="node63" class="node">
<title>ShwounsVaultRegistry</title>
<ellipse fill="none" stroke="black" cx="1480.19" cy="-5570" rx="95.37" ry="18"/>
<text xml:space="preserve" text-anchor="middle" x="1480.19" y="-5564.95" font-family="Times,serif" font-size="14.00">ShwounsVaultRegistry</text>
</g>
<!-- ShwounsVaultRegistry&#45;&gt;GovernedOwnable -->
<g id="edge31" class="edge">
<title>ShwounsVaultRegistry&#45;&gt;GovernedOwnable</title>
<path fill="none" stroke="black" d="M1477.27,-5551.97C1453.36,-5412.89 1290.33,-4464.41 1260.03,-4288.16"/>
<polygon fill="black" stroke="black" points="1263.52,-4287.79 1258.38,-4278.53 1256.62,-4288.98 1263.52,-4287.79"/>
</g>
<!-- IShwounsVaultRegistry -->
<g id="node64" class="node">
<title>IShwounsVaultRegistry</title>
<ellipse fill="none" stroke="black" cx="1480.19" cy="-4259" rx="98.44" ry="18"/>
<text xml:space="preserve" text-anchor="middle" x="1480.19" y="-4253.95" font-family="Times,serif" font-size="14.00">IShwounsVaultRegistry</text>
</g>
<!-- ShwounsVaultRegistry&#45;&gt;IShwounsVaultRegistry -->
<g id="edge30" class="edge">
<title>ShwounsVaultRegistry&#45;&gt;IShwounsVaultRegistry</title>
<path fill="none" stroke="black" d="M1480.19,-5551.97C1480.19,-5413.11 1480.19,-4467.35 1480.19,-4288.98"/>
<polygon fill="black" stroke="black" points="1483.69,-4289 1480.19,-4279 1476.69,-4289 1483.69,-4289"/>
</g>
<!-- ShwounsVault -->
<g id="node65" class="node">
<title>ShwounsVault</title>
<ellipse fill="none" stroke="black" cx="2075.19" cy="-5570" rx="64.15" ry="18"/>
<text xml:space="preserve" text-anchor="middle" x="2075.19" y="-5564.95" font-family="Times,serif" font-size="14.00">ShwounsVault</text>
</g>
<!-- ShwounsVault&#45;&gt;ERC721Holder -->
<g id="edge32" class="edge">
<title>ShwounsVault&#45;&gt;ERC721Holder</title>
<path fill="none" stroke="black" d="M2072.06,-5551.97C2046.45,-5412.89 1871.83,-4464.41 1839.38,-4288.16"/>
<polygon fill="black" stroke="black" points="1842.86,-4287.73 1837.6,-4278.52 1835.97,-4288.99 1842.86,-4287.73"/>
</g>
<!-- ShwounsVault&#45;&gt;ERC1155Holder -->
<g id="edge33" class="edge">
<title>ShwounsVault&#45;&gt;ERC1155Holder</title>
<path fill="none" stroke="black" d="M2069.99,-5551.97C2027.47,-5412.82 1737.37,-4463.46 1683.72,-4287.89"/>
<polygon fill="black" stroke="black" points="1687.11,-4287.02 1680.84,-4278.48 1680.42,-4289.07 1687.11,-4287.02"/>
</g>
<!-- Permissioned -->
<g id="node66" class="node">
<title>Permissioned</title>
<ellipse fill="none" stroke="black" cx="1981.19" cy="-4259" rx="61.08" ry="18"/>
<text xml:space="preserve" text-anchor="middle" x="1981.19" y="-4253.95" font-family="Times,serif" font-size="14.00">Permissioned</text>
</g>
<!-- ShwounsVault&#45;&gt;Permissioned -->
<g id="edge34" class="edge">
<title>ShwounsVault&#45;&gt;Permissioned</title>
<path fill="none" stroke="black" d="M2073.97,-5551.97C2063.99,-5413.04 1996.02,-4466.41 1983.26,-4288.72"/>
<polygon fill="black" stroke="black" points="1986.77,-4288.72 1982.56,-4279 1979.78,-4289.22 1986.77,-4288.72"/>
</g>
<!-- ERC6551Account -->
<g id="node67" class="node">
<title>ERC6551Account</title>
<ellipse fill="none" stroke="black" cx="2139.19" cy="-4259" rx="78.48" ry="18"/>
<text xml:space="preserve" text-anchor="middle" x="2139.19" y="-4253.95" font-family="Times,serif" font-size="14.00">ERC6551Account</text>
</g>
<!-- ShwounsVault&#45;&gt;ERC6551Account -->
<g id="edge35" class="edge">
<title>ShwounsVault&#45;&gt;ERC6551Account</title>
<path fill="none" stroke="black" d="M2076.03,-5551.97C2082.82,-5413.11 2129.06,-4467.35 2137.78,-4288.98"/>
<polygon fill="black" stroke="black" points="2141.27,-4289.16 2138.26,-4279 2134.28,-4288.82 2141.27,-4289.16"/>
</g>
<!-- ERC6551Executor -->
<g id="node68" class="node">
<title>ERC6551Executor</title>
<ellipse fill="none" stroke="black" cx="2316.19" cy="-4259" rx="80.52" ry="18"/>
<text xml:space="preserve" text-anchor="middle" x="2316.19" y="-4253.95" font-family="Times,serif" font-size="14.00">ERC6551Executor</text>
</g>
<!-- ShwounsVault&#45;&gt;ERC6551Executor -->
<g id="edge36" class="edge">
<title>ShwounsVault&#45;&gt;ERC6551Executor</title>
<path fill="none" stroke="black" d="M2078.33,-5551.97C2103.94,-5412.89 2278.56,-4464.41 2311.01,-4288.16"/>
<polygon fill="black" stroke="black" points="2314.41,-4288.99 2312.78,-4278.52 2307.53,-4287.73 2314.41,-4288.99"/>
</g>
<!-- BatchExecutor -->
<g id="node69" class="node">
<title>BatchExecutor</title>
<ellipse fill="none" stroke="black" cx="2480.19" cy="-4259" rx="65.68" ry="18"/>
<text xml:space="preserve" text-anchor="middle" x="2480.19" y="-4253.95" font-family="Times,serif" font-size="14.00">BatchExecutor</text>
</g>
<!-- ShwounsVault&#45;&gt;BatchExecutor -->
<g id="edge37" class="edge">
<title>ShwounsVault&#45;&gt;BatchExecutor</title>
<path fill="none" stroke="black" d="M2080.46,-5551.97C2123.52,-5412.82 2417.24,-4463.46 2471.56,-4287.89"/>
<polygon fill="black" stroke="black" points="2474.86,-4289.07 2474.48,-4278.48 2468.18,-4287 2474.86,-4289.07"/>
</g>
<!-- ERC6551Account&#45;&gt;ERC165 -->
<g id="edge49" class="edge">
<title>ERC6551Account&#45;&gt;ERC165</title>
<path fill="none" stroke="black" d="M2139.43,-4240.98C2141.34,-4102.23 2154.34,-3157.2 2156.8,-2978.96"/>
<polygon fill="black" stroke="black" points="2160.29,-2979.04 2156.93,-2968.99 2153.3,-2978.94 2160.29,-2979.04"/>
</g>
<!-- Signatory -->
<g id="node80" class="node">
<title>Signatory</title>
<ellipse fill="none" stroke="black" cx="1869.19" cy="-2949" rx="46.75" ry="18"/>
<text xml:space="preserve" text-anchor="middle" x="1869.19" y="-2943.95" font-family="Times,serif" font-size="14.00">Signatory</text>
</g>
<!-- ERC6551Account&#45;&gt;Signatory -->
<g id="edge50" class="edge">
<title>ERC6551Account&#45;&gt;Signatory</title>
<path fill="none" stroke="black" d="M2135.68,-4240.98C2106.99,-4102.01 1911.36,-3154.26 1875,-2978.14"/>
<polygon fill="black" stroke="black" points="1878.46,-2977.59 1873.01,-2968.51 1871.61,-2979.01 1878.46,-2977.59"/>
</g>
<!-- IERC6551Account -->
<g id="node82" class="node">
<title>IERC6551Account</title>
<ellipse fill="none" stroke="black" cx="2015.19" cy="-2949" rx="81.55" ry="18"/>
<text xml:space="preserve" text-anchor="middle" x="2015.19" y="-2943.95" font-family="Times,serif" font-size="14.00">IERC6551Account</text>
</g>
<!-- ERC6551Account&#45;&gt;IERC6551Account -->
<g id="edge48" class="edge">
<title>ERC6551Account&#45;&gt;IERC6551Account</title>
<path fill="none" stroke="black" d="M2137.58,-4240.98C2124.42,-4102.16 2034.75,-3156.25 2017.91,-2978.69"/>
<polygon fill="black" stroke="black" points="2021.42,-2978.61 2016.99,-2968.98 2014.45,-2979.27 2021.42,-2978.61"/>
</g>
<!-- ERC6551Executor&#45;&gt;ERC165 -->
<g id="edge52" class="edge">
<title>ERC6551Executor&#45;&gt;ERC165</title>
<path fill="none" stroke="black" d="M2314.13,-4240.98C2297.25,-4102.16 2182.27,-3156.25 2160.68,-2978.69"/>
<polygon fill="black" stroke="black" points="2164.18,-2978.48 2159.5,-2968.98 2157.23,-2979.33 2164.18,-2978.48"/>
</g>
<!-- IERC6551Executable -->
<g id="node86" class="node">
<title>IERC6551Executable</title>
<ellipse fill="none" stroke="black" cx="2309.19" cy="-2949" rx="91.27" ry="18"/>
<text xml:space="preserve" text-anchor="middle" x="2309.19" y="-2943.95" font-family="Times,serif" font-size="14.00">IERC6551Executable</text>
</g>
<!-- ERC6551Executor&#45;&gt;IERC6551Executable -->
<g id="edge51" class="edge">
<title>ERC6551Executor&#45;&gt;IERC6551Executable</title>
<path fill="none" stroke="black" d="M2316.1,-4240.98C2315.36,-4102.23 2310.3,-3157.2 2309.35,-2978.96"/>
<polygon fill="black" stroke="black" points="2312.85,-2978.97 2309.3,-2968.99 2305.85,-2979.01 2312.85,-2978.97"/>
</g>
<!-- BaseExecutor -->
<g id="node87" class="node">
<title>BaseExecutor</title>
<ellipse fill="none" stroke="black" cx="2480.19" cy="-2949" rx="62.1" ry="18"/>
<text xml:space="preserve" text-anchor="middle" x="2480.19" y="-2943.95" font-family="Times,serif" font-size="14.00">BaseExecutor</text>
</g>
<!-- ERC6551Executor&#45;&gt;BaseExecutor -->
<g id="edge53" class="edge">
<title>ERC6551Executor&#45;&gt;BaseExecutor</title>
<path fill="none" stroke="black" d="M2318.33,-4240.98C2335.73,-4102.16 2454.33,-3156.25 2476.6,-2978.69"/>
<polygon fill="black" stroke="black" points="2480.04,-2979.33 2477.81,-2968.98 2473.1,-2978.46 2480.04,-2979.33"/>
</g>
<!-- BatchExecutor&#45;&gt;BaseExecutor -->
<g id="edge54" class="edge">
<title>BatchExecutor&#45;&gt;BaseExecutor</title>
<path fill="none" stroke="black" d="M2480.19,-4240.98C2480.19,-4102.23 2480.19,-3157.2 2480.19,-2978.96"/>
<polygon fill="black" stroke="black" points="2483.69,-2978.99 2480.19,-2968.99 2476.69,-2978.99 2483.69,-2978.99"/>
</g>
<!-- IWETH -->
<g id="node71" class="node">
<title>IWETH</title>
<ellipse fill="none" stroke="black" cx="7213.19" cy="-8191" rx="41.12" ry="18"/>
<text xml:space="preserve" text-anchor="middle" x="7213.19" y="-8185.95" font-family="Times,serif" font-size="14.00">IWETH</text>
</g>
<!-- IChainalysisSanctionsList -->
<g id="node72" class="node">
<title>IChainalysisSanctionsList</title>
<ellipse fill="none" stroke="black" cx="7379.19" cy="-8191" rx="107.14" ry="18"/>
<text xml:space="preserve" text-anchor="middle" x="7379.19" y="-8185.95" font-family="Times,serif" font-size="14.00">IChainalysisSanctionsList</text>
</g>
<!-- ERC721Enumerable&#45;&gt;ERC721 -->
<g id="edge45" class="edge">
<title>ERC721Enumerable&#45;&gt;ERC721</title>
<path fill="none" stroke="black" d="M650.42,-5551.97C693.16,-5412.82 984.71,-4463.46 1038.63,-4287.89"/>
<polygon fill="black" stroke="black" points="1041.93,-4289.07 1041.52,-4278.48 1035.24,-4287.01 1041.93,-4289.07"/>
</g>
<!-- IERC721Enumerable -->
<g id="node78" class="node">
<title>IERC721Enumerable</title>
<ellipse fill="none" stroke="black" cx="642.19" cy="-4259" rx="90.76" ry="18"/>
<text xml:space="preserve" text-anchor="middle" x="642.19" y="-4253.95" font-family="Times,serif" font-size="14.00">IERC721Enumerable</text>
</g>
<!-- ERC721Enumerable&#45;&gt;IERC721Enumerable -->
<g id="edge46" class="edge">
<title>ERC721Enumerable&#45;&gt;IERC721Enumerable</title>
<path fill="none" stroke="black" d="M645.15,-5551.97C644.84,-5413.11 642.67,-4467.35 642.26,-4288.98"/>
<polygon fill="black" stroke="black" points="645.76,-4288.99 642.24,-4279 638.76,-4289.01 645.76,-4288.99"/>
</g>
<!-- ShwounsDAOData -->
<g id="node79" class="node">
<title>ShwounsDAOData</title>
<ellipse fill="none" stroke="black" cx="7586.19" cy="-8191" rx="82.06" ry="18"/>
<text xml:space="preserve" text-anchor="middle" x="7586.19" y="-8185.95" font-family="Times,serif" font-size="14.00">ShwounsDAOData</text>
</g>
<!-- IERC1271 -->
<g id="node81" class="node">
<title>IERC1271</title>
<ellipse fill="none" stroke="black" cx="1869.19" cy="-1638" rx="50.33" ry="18"/>
<text xml:space="preserve" text-anchor="middle" x="1869.19" y="-1632.95" font-family="Times,serif" font-size="14.00">IERC1271</text>
</g>
<!-- Signatory&#45;&gt;IERC1271 -->
<g id="edge47" class="edge">
<title>Signatory&#45;&gt;IERC1271</title>
<path fill="none" stroke="black" d="M1869.19,-2930.97C1869.19,-2792.11 1869.19,-1846.35 1869.19,-1667.98"/>
<polygon fill="black" stroke="black" points="1872.69,-1668 1869.19,-1658 1865.69,-1668 1872.69,-1668"/>
</g>
<!-- LibSandbox -->
<g id="node83" class="node">
<title>LibSandbox</title>
<ellipse fill="none" stroke="black" cx="7742.19" cy="-8191" rx="55.96" ry="18"/>
<text xml:space="preserve" text-anchor="middle" x="7742.19" y="-8185.95" font-family="Times,serif" font-size="14.00">LibSandbox</text>
</g>
<!-- LibExecutor -->
<g id="node84" class="node">
<title>LibExecutor</title>
<ellipse fill="none" stroke="black" cx="7873.19" cy="-8191" rx="56.98" ry="18"/>
<text xml:space="preserve" text-anchor="middle" x="7873.19" y="-8185.95" font-family="Times,serif" font-size="14.00">LibExecutor</text>
</g>
<!-- ISandboxExecutor -->
<g id="node85" class="node">
<title>ISandboxExecutor</title>
<ellipse fill="none" stroke="black" cx="2480.19" cy="-328" rx="79.5" ry="18"/>
<text xml:space="preserve" text-anchor="middle" x="2480.19" y="-322.95" font-family="Times,serif" font-size="14.00">ISandboxExecutor</text>
</g>
<!-- BaseExecutor&#45;&gt;Context -->
<g id="edge56" class="edge">
<title>BaseExecutor&#45;&gt;Context</title>
<path fill="none" stroke="black" d="M2467.3,-2930.97C2361.48,-2791.19 1636.67,-1833.8 1508.53,-1664.54"/>
<polygon fill="black" stroke="black" points="1511.49,-1662.66 1502.67,-1656.8 1505.91,-1666.88 1511.49,-1662.66"/>
</g>
<!-- SandboxExecutor -->
<g id="node88" class="node">
<title>SandboxExecutor</title>
<ellipse fill="none" stroke="black" cx="2480.19" cy="-1638" rx="76.43" ry="18"/>
<text xml:space="preserve" text-anchor="middle" x="2480.19" y="-1632.95" font-family="Times,serif" font-size="14.00">SandboxExecutor</text>
</g>
<!-- BaseExecutor&#45;&gt;SandboxExecutor -->
<g id="edge57" class="edge">
<title>BaseExecutor&#45;&gt;SandboxExecutor</title>
<path fill="none" stroke="black" d="M2480.19,-2930.97C2480.19,-2792.11 2480.19,-1846.35 2480.19,-1667.98"/>
<polygon fill="black" stroke="black" points="2483.69,-1668 2480.19,-1658 2476.69,-1668 2483.69,-1668"/>
</g>
<!-- SandboxExecutor&#45;&gt;ISandboxExecutor -->
<g id="edge55" class="edge">
<title>SandboxExecutor&#45;&gt;ISandboxExecutor</title>
<path fill="none" stroke="black" d="M2480.19,-1619.98C2480.19,-1481.23 2480.19,-536.2 2480.19,-357.96"/>
<polygon fill="black" stroke="black" points="2483.69,-357.99 2480.19,-347.99 2476.69,-357.99 2483.69,-357.99"/>
</g>
<!-- ERC6551AccountLib -->
<g id="node89" class="node">
<title>ERC6551AccountLib</title>
<ellipse fill="none" stroke="black" cx="8039.19" cy="-8191" rx="91.27" ry="18"/>
<text xml:space="preserve" text-anchor="middle" x="8039.19" y="-8185.95" font-family="Times,serif" font-size="14.00">ERC6551AccountLib</text>
</g>
<!-- ERC6551BytecodeLib -->
<g id="node90" class="node">
<title>ERC6551BytecodeLib</title>
<ellipse fill="none" stroke="black" cx="8243.19" cy="-8191" rx="94.86" ry="18"/>
<text xml:space="preserve" text-anchor="middle" x="8243.19" y="-8185.95" font-family="Times,serif" font-size="14.00">ERC6551BytecodeLib</text>
</g>
<!-- IERC6551Registry -->
<g id="node91" class="node">
<title>IERC6551Registry</title>
<ellipse fill="none" stroke="black" cx="8437.19" cy="-8191" rx="81.55" ry="18"/>
<text xml:space="preserve" text-anchor="middle" x="8437.19" y="-8185.95" font-family="Times,serif" font-size="14.00">IERC6551Registry</text>
</g>
</g>
</svg>
