<?xml version="1.0" encoding="UTF-8" standalone="no"?>
<!DOCTYPE svg PUBLIC "-//W3C//DTD SVG 1.1//EN"
 "http://www.w3.org/Graphics/SVG/1.1/DTD/svg11.dtd">
<!-- Generated by graphviz version 5.0.0 (20220707.1540)
 -->
<!-- Title: StorageDiagram Pages: 1 -->
<svg width="2162pt" height="1383pt"
 viewBox="0.00 0.00 2161.52 1383.40" xmlns="http://www.w3.org/2000/svg" xmlns:xlink="http://www.w3.org/1999/xlink">
<g id="graph0" class="graph" transform="scale(1 1) rotate(0) translate(4 1379.4)">
<title>StorageDiagram</title>
<polygon fill="white" stroke="transparent" points="-4,4 -4,-1379.4 2157.52,-1379.4 2157.52,4 -4,4"/>
<!-- 9 -->
<g id="node1" class="node">
<title>9</title>
<polygon fill="#f2f2f2" stroke="black" points="0,-413.9 0,-860.3 878.93,-860.3 878.93,-413.9 0,-413.9"/>
<text text-anchor="middle" x="439.47" y="-843.7" font-family="Courier New" font-size="14.00">ShwounsAuctionHouse &lt;&lt;Contract&gt;&gt;</text>
<polyline fill="none" stroke="black" points="0,-835.5 878.93,-835.5 "/>
<text text-anchor="middle" x="37.4" y="-818.9" font-family="Courier New" font-size="14.00">slot</text>
<polyline fill="none" stroke="black" points="0,-810.7 74.81,-810.7 "/>
<text text-anchor="middle" x="37.4" y="-794.1" font-family="Courier New" font-size="14.00">0</text>
<polyline fill="none" stroke="black" points="0,-785.9 74.81,-785.9 "/>
<text text-anchor="middle" x="37.4" y="-769.3" font-family="Courier New" font-size="14.00">1&#45;50</text>
<polyline fill="none" stroke="black" points="0,-761.1 74.81,-761.1 "/>
<text text-anchor="middle" x="37.4" y="-744.5" font-family="Courier New" font-size="14.00">51</text>
<polyline fill="none" stroke="black" points="0,-736.3 74.81,-736.3 "/>
<text text-anchor="middle" x="37.4" y="-719.7" font-family="Courier New" font-size="14.00">52&#45;100</text>
<polyline fill="none" stroke="black" points="0,-711.5 74.81,-711.5 "/>
<text text-anchor="middle" x="37.4" y="-694.9" font-family="Courier New" font-size="14.00">101</text>
<polyline fill="none" stroke="black" points="0,-686.7 74.81,-686.7 "/>
<text text-anchor="middle" x="37.4" y="-670.1" font-family="Courier New" font-size="14.00">102&#45;150</text>
<polyline fill="none" stroke="black" points="0,-661.9 74.81,-661.9 "/>
<text text-anchor="middle" x="37.4" y="-645.3" font-family="Courier New" font-size="14.00">151</text>
<polyline fill="none" stroke="black" points="0,-637.1 74.81,-637.1 "/>
<text text-anchor="middle" x="37.4" y="-620.5" font-family="Courier New" font-size="14.00">152&#45;200</text>
<polyline fill="none" stroke="black" points="0,-612.3 74.81,-612.3 "/>
<text text-anchor="middle" x="37.4" y="-595.7" font-family="Courier New" font-size="14.00">201&#45;250</text>
<polyline fill="none" stroke="black" points="0,-587.5 74.81,-587.5 "/>
<text text-anchor="middle" x="37.4" y="-570.9" font-family="Courier New" font-size="14.00">251&#45;300</text>
<polyline fill="none" stroke="black" points="0,-562.7 74.81,-562.7 "/>
<text text-anchor="middle" x="37.4" y="-546.1" font-family="Courier New" font-size="14.00">301</text>
<polyline fill="none" stroke="black" points="0,-537.9 74.81,-537.9 "/>
<text text-anchor="middle" x="37.4" y="-521.3" font-family="Courier New" font-size="14.00">302&#45;303</text>
<polyline fill="none" stroke="black" points="0,-513.1 74.81,-513.1 "/>
<text text-anchor="middle" x="37.4" y="-496.5" font-family="Courier New" font-size="14.00">304</text>
<polyline fill="none" stroke="black" points="0,-488.3 74.81,-488.3 "/>
<text text-anchor="middle" x="37.4" y="-471.7" font-family="Courier New" font-size="14.00">305</text>
<polyline fill="none" stroke="black" points="0,-463.5 74.81,-463.5 "/>
<text text-anchor="middle" x="37.4" y="-446.9" font-family="Courier New" font-size="14.00">306</text>
<polyline fill="none" stroke="black" points="0,-438.7 74.81,-438.7 "/>
<text text-anchor="middle" x="37.4" y="-422.1" font-family="Courier New" font-size="14.00">307</text>
<polyline fill="none" stroke="black" points="74.81,-413.9 74.81,-835.5 "/>
<text text-anchor="middle" x="476.87" y="-818.9" font-family="Courier New" font-size="14.00">type: &lt;inherited contract&gt;.variable (bytes)</text>
<polyline fill="none" stroke="black" points="74.81,-810.7 878.93,-810.7 "/>
<text text-anchor="middle" x="150.02" y="-794.1" font-family="Courier New" font-size="14.00">unallocated (30)</text>
<polyline fill="none" stroke="black" points="225.23,-785.9 225.23,-810.7 "/>
<text text-anchor="middle" x="388.66" y="-794.1" font-family="Courier New" font-size="14.00">bool: Initializable._initializing (1)</text>
<polyline fill="none" stroke="black" points="552.08,-785.9 552.08,-810.7 "/>
<text text-anchor="middle" x="715.51" y="-794.1" font-family="Courier New" font-size="14.00">uint8: Initializable._initialized (1)</text>
<polyline fill="none" stroke="black" points="74.81,-785.9 878.93,-785.9 "/>
<text text-anchor="middle" x="476.64" y="-769.3" font-family="Courier New" font-size="14.00">uint256[50]: ContextUpgradeable.__gap (1600)</text>
<polyline fill="none" stroke="black" points="74.81,-761.1 878.93,-761.1 "/>
<text text-anchor="middle" x="231.52" y="-744.5" font-family="Courier New" font-size="14.00">unallocated (31)</text>
<polyline fill="none" stroke="black" points="388.23,-736.3 388.23,-761.1 "/>
<text text-anchor="middle" x="633.16" y="-744.5" font-family="Courier New" font-size="14.00">bool: PausableUpgradeable._paused (1)</text>
<polyline fill="none" stroke="black" points="74.81,-736.3 878.93,-736.3 "/>
<text text-anchor="middle" x="476.84" y="-719.7" font-family="Courier New" font-size="14.00">uint256[49]: PausableUpgradeable.__gap (1568)</text>
<polyline fill="none" stroke="black" points="74.81,-711.5 878.93,-711.5 "/>
<text text-anchor="middle" x="476.44" y="-694.9" font-family="Courier New" font-size="14.00">uint256: ReentrancyGuardUpgradeable._status (32)</text>
<polyline fill="none" stroke="black" points="74.81,-686.7 878.93,-686.7 "/>
<text text-anchor="middle" x="476.75" y="-670.1" font-family="Courier New" font-size="14.00">uint256[49]: ReentrancyGuardUpgradeable.__gap (1568)</text>
<polyline fill="none" stroke="black" points="74.81,-661.9 878.93,-661.9 "/>
<text text-anchor="middle" x="227.52" y="-645.3" font-family="Courier New" font-size="14.00">unallocated (12)</text>
<polyline fill="none" stroke="black" points="380.23,-637.1 380.23,-661.9 "/>
<text text-anchor="middle" x="629.56" y="-645.3" font-family="Courier New" font-size="14.00">address: OwnableUpgradeable._owner (20)</text>
<polyline fill="none" stroke="black" points="74.81,-637.1 878.93,-637.1 "/>
<text text-anchor="middle" x="476.64" y="-620.5" font-family="Courier New" font-size="14.00">uint256[49]: OwnableUpgradeable.__gap (1568)</text>
<polyline fill="none" stroke="black" points="74.81,-612.3 878.93,-612.3 "/>
<text text-anchor="middle" x="476.54" y="-595.7" font-family="Courier New" font-size="14.00">uint256[50]: ERC1967UpgradeUpgradeable.__gap (1600)</text>
<polyline fill="none" stroke="black" points="74.81,-587.5 878.93,-587.5 "/>
<text text-anchor="middle" x="476.54" y="-570.9" font-family="Courier New" font-size="14.00">uint256[50]: UUPSUpgradeable.__gap (1600)</text>
<polyline fill="none" stroke="black" points="74.81,-562.7 878.93,-562.7 "/>
<text text-anchor="middle" x="242.03" y="-546.1" font-family="Courier New" font-size="14.00">uint8: minBidIncrementPercentage (1)</text>
<polyline fill="none" stroke="black" points="409.26,-537.9 409.26,-562.7 "/>
<text text-anchor="middle" x="518.17" y="-546.1" font-family="Courier New" font-size="14.00">uint56: timeBuffer (7)</text>
<polyline fill="none" stroke="black" points="627.09,-537.9 627.09,-562.7 "/>
<text text-anchor="middle" x="752.81" y="-546.1" font-family="Courier New" font-size="14.00">uint192: reservePrice (24)</text>
<polyline fill="none" stroke="black" points="74.81,-537.9 878.93,-537.9 "/>
<text text-anchor="middle" x="476.54" y="-521.3" font-family="Courier New" font-size="14.00">IShwounsAuctionHouse.AuctionV2: auctionStorage (64)</text>
<polyline fill="none" stroke="black" points="74.81,-513.1 878.93,-513.1 "/>
<text text-anchor="middle" x="476.75" y="-496.5" font-family="Courier New" font-size="14.00">mapping(uint256=&gt;SettlementState): settlementHistory (32)</text>
<polyline fill="none" stroke="black" points="74.81,-488.3 878.93,-488.3 "/>
<text text-anchor="middle" x="210.52" y="-471.7" font-family="Courier New" font-size="14.00">unallocated (12)</text>
<polyline fill="none" stroke="black" points="346.23,-463.5 346.23,-488.3 "/>
<text text-anchor="middle" x="612.16" y="-471.7" font-family="Courier New" font-size="14.00">IChainalysisSanctionsList: sanctionsOracle (20)</text>
<polyline fill="none" stroke="black" points="74.81,-463.5 878.93,-463.5 "/>
<text text-anchor="middle" x="164.02" y="-446.9" font-family="Courier New" font-size="14.00">unallocated (11)</text>
<polyline fill="none" stroke="black" points="253.23,-438.7 253.23,-463.5 "/>
<text text-anchor="middle" x="413.85" y="-446.9" font-family="Courier New" font-size="14.00">bool: governanceRewardsLocked (1)</text>
<polyline fill="none" stroke="black" points="574.48,-438.7 574.48,-463.5 "/>
<text text-anchor="middle" x="726.7" y="-446.9" font-family="Courier New" font-size="14.00">address: governanceRewards (20)</text>
<polyline fill="none" stroke="black" points="74.81,-438.7 878.93,-438.7 "/>
<text text-anchor="middle" x="155.52" y="-422.1" font-family="Courier New" font-size="14.00">unallocated (11)</text>
<polyline fill="none" stroke="black" points="236.23,-413.9 236.23,-438.7 "/>
<text text-anchor="middle" x="371.55" y="-422.1" font-family="Courier New" font-size="14.00">bool: vaultRegistryLocked (1)</text>
<polyline fill="none" stroke="black" points="506.87,-413.9 506.87,-438.7 "/>
<text text-anchor="middle" x="692.6" y="-422.1" font-family="Courier New" font-size="14.00">IShwounsVaultRegistry: vaultRegistry (20)</text>
</g>
<!-- 1 -->
<g id="node2" class="node">
<title>1</title>
<polygon fill="#f2f2f2" stroke="black" points="1408.61,-1201.3 1408.61,-1374.9 1659.84,-1374.9 1659.84,-1201.3 1408.61,-1201.3"/>
<text text-anchor="middle" x="1534.23" y="-1358.3" font-family="Courier New" font-size="14.00">uint256[50]: __gap &lt;&lt;Array&gt;&gt;</text>
<polyline fill="none" stroke="black" points="1408.61,-1350.1 1659.84,-1350.1 "/>
<text text-anchor="middle" x="1433.41" y="-1333.5" font-family="Courier New" font-size="14.00">slot</text>
<polyline fill="none" stroke="black" points="1408.61,-1325.3 1458.21,-1325.3 "/>
<text text-anchor="middle" x="1433.41" y="-1308.7" font-family="Courier New" font-size="14.00">1</text>
<polyline fill="none" stroke="black" points="1408.61,-1300.5 1458.21,-1300.5 "/>
<text text-anchor="middle" x="1433.41" y="-1283.9" font-family="Courier New" font-size="14.00">2</text>
<polyline fill="none" stroke="black" points="1408.61,-1275.7 1458.21,-1275.7 "/>
<text text-anchor="middle" x="1433.41" y="-1259.1" font-family="Courier New" font-size="14.00">3&#45;48</text>
<polyline fill="none" stroke="black" points="1408.61,-1250.9 1458.21,-1250.9 "/>
<text text-anchor="middle" x="1433.41" y="-1234.3" font-family="Courier New" font-size="14.00">49</text>
<polyline fill="none" stroke="black" points="1408.61,-1226.1 1458.21,-1226.1 "/>
<text text-anchor="middle" x="1433.41" y="-1209.5" font-family="Courier New" font-size="14.00">50</text>
<polyline fill="none" stroke="black" points="1458.21,-1201.3 1458.21,-1350.1 "/>
<text text-anchor="middle" x="1558.63" y="-1333.5" font-family="Courier New" font-size="14.00">type: variable (bytes)</text>
<polyline fill="none" stroke="black" points="1458.21,-1325.3 1659.04,-1325.3 "/>
<text text-anchor="middle" x="1558.62" y="-1308.7" font-family="Courier New" font-size="14.00">uint256 (32)</text>
<polyline fill="none" stroke="black" points="1458.21,-1300.5 1659.04,-1300.5 "/>
<text text-anchor="middle" x="1558.62" y="-1283.9" font-family="Courier New" font-size="14.00">uint256 (32)</text>
<polyline fill="none" stroke="black" points="1458.21,-1275.7 1659.04,-1275.7 "/>
<text text-anchor="middle" x="1558.42" y="-1259.1" font-family="Courier New" font-size="14.00">&#45;&#45;&#45;&#45; (1472)</text>
<polyline fill="none" stroke="black" points="1458.21,-1250.9 1659.04,-1250.9 "/>
<text text-anchor="middle" x="1558.62" y="-1234.3" font-family="Courier New" font-size="14.00">uint256 (32)</text>
<polyline fill="none" stroke="black" points="1458.21,-1226.1 1659.04,-1226.1 "/>
<text text-anchor="middle" x="1558.62" y="-1209.5" font-family="Courier New" font-size="14.00">uint256 (32)</text>
</g>
<!-- 9&#45;&gt;1 -->
<g id="edge1" class="edge">
<title>9:8&#45;&gt;1</title>
<path fill="none" stroke="black" d="M878.93,-773.1C925.55,-773.1 883.14,-1157.01 914.93,-1191.1 1036.51,-1321.47 1256.2,-1324.58 1398.31,-1310"/>
<polygon fill="black" stroke="black" points="1398.84,-1313.46 1408.41,-1308.92 1398.09,-1306.5 1398.84,-1313.46"/>
</g>
<!-- 2 -->
<g id="node3" class="node">
<title>2</title>
<polygon fill="#f2f2f2" stroke="black" points="1404.81,-1008.3 1404.81,-1181.9 1663.64,-1181.9 1663.64,-1008.3 1404.81,-1008.3"/>
<text text-anchor="middle" x="1534.23" y="-1165.3" font-family="Courier New" font-size="14.00">uint256[49]: __gap &lt;&lt;Array&gt;&gt;</text>
<polyline fill="none" stroke="black" points="1404.81,-1157.1 1663.64,-1157.1 "/>
<text text-anchor="middle" x="1433.81" y="-1140.5" font-family="Courier New" font-size="14.00">slot</text>
<polyline fill="none" stroke="black" points="1404.81,-1132.3 1462.81,-1132.3 "/>
<text text-anchor="middle" x="1433.81" y="-1115.7" font-family="Courier New" font-size="14.00">52</text>
<polyline fill="none" stroke="black" points="1404.81,-1107.5 1462.81,-1107.5 "/>
<text text-anchor="middle" x="1433.81" y="-1090.9" font-family="Courier New" font-size="14.00">53</text>
<polyline fill="none" stroke="black" points="1404.81,-1082.7 1462.81,-1082.7 "/>
<text text-anchor="middle" x="1433.81" y="-1066.1" font-family="Courier New" font-size="14.00">54&#45;98</text>
<polyline fill="none" stroke="black" points="1404.81,-1057.9 1462.81,-1057.9 "/>
<text text-anchor="middle" x="1433.81" y="-1041.3" font-family="Courier New" font-size="14.00">99</text>
<polyline fill="none" stroke="black" points="1404.81,-1033.1 1462.81,-1033.1 "/>
<text text-anchor="middle" x="1433.81" y="-1016.5" font-family="Courier New" font-size="14.00">100</text>
<polyline fill="none" stroke="black" points="1462.81,-1008.3 1462.81,-1157.1 "/>
<text text-anchor="middle" x="1563.23" y="-1140.5" font-family="Courier New" font-size="14.00">type: variable (bytes)</text>
<polyline fill="none" stroke="black" points="1462.81,-1132.3 1663.64,-1132.3 "/>
<text text-anchor="middle" x="1563.22" y="-1115.7" font-family="Courier New" font-size="14.00">uint256 (32)</text>
<polyline fill="none" stroke="black" points="1462.81,-1107.5 1663.64,-1107.5 "/>
<text text-anchor="middle" x="1563.22" y="-1090.9" font-family="Courier New" font-size="14.00">uint256 (32)</text>
<polyline fill="none" stroke="black" points="1462.81,-1082.7 1663.64,-1082.7 "/>
<text text-anchor="middle" x="1563.02" y="-1066.1" font-family="Courier New" font-size="14.00">&#45;&#45;&#45;&#45; (1440)</text>
<polyline fill="none" stroke="black" points="1462.81,-1057.9 1663.64,-1057.9 "/>
<text text-anchor="middle" x="1563.22" y="-1041.3" font-family="Courier New" font-size="14.00">uint256 (32)</text>
<polyline fill="none" stroke="black" points="1462.81,-1033.1 1663.64,-1033.1 "/>
<text text-anchor="middle" x="1563.22" y="-1016.5" font-family="Courier New" font-size="14.00">uint256 (32)</text>
</g>
<!-- 9&#45;&gt;2 -->
<g id="edge2" class="edge">
<title>9:15&#45;&gt;2</title>
<path fill="none" stroke="black" d="M878.93,-724.1C940.34,-724.1 872.05,-954.14 914.93,-998.1 1038.01,-1124.29 1253.4,-1129.5 1394.67,-1116.38"/>
<polygon fill="black" stroke="black" points="1395.1,-1119.86 1404.72,-1115.41 1394.42,-1112.89 1395.1,-1119.86"/>
</g>
<!-- 3 -->
<g id="node4" class="node">
<title>3</title>
<polygon fill="#f2f2f2" stroke="black" points="1396.41,-815.3 1396.41,-988.9 1672.05,-988.9 1672.05,-815.3 1396.41,-815.3"/>
<text text-anchor="middle" x="1534.23" y="-972.3" font-family="Courier New" font-size="14.00">uint256[49]: __gap &lt;&lt;Array&gt;&gt;</text>
<polyline fill="none" stroke="black" points="1396.41,-964.1 1672.05,-964.1 "/>
<text text-anchor="middle" x="1433.81" y="-947.5" font-family="Courier New" font-size="14.00">slot</text>
<polyline fill="none" stroke="black" points="1396.41,-939.3 1471.22,-939.3 "/>
<text text-anchor="middle" x="1433.81" y="-922.7" font-family="Courier New" font-size="14.00">102</text>
<polyline fill="none" stroke="black" points="1396.41,-914.5 1471.22,-914.5 "/>
<text text-anchor="middle" x="1433.81" y="-897.9" font-family="Courier New" font-size="14.00">103</text>
<polyline fill="none" stroke="black" points="1396.41,-889.7 1471.22,-889.7 "/>
<text text-anchor="middle" x="1433.81" y="-873.1" font-family="Courier New" font-size="14.00">104&#45;148</text>
<polyline fill="none" stroke="black" points="1396.41,-864.9 1471.22,-864.9 "/>
<text text-anchor="middle" x="1433.81" y="-848.3" font-family="Courier New" font-size="14.00">149</text>
<polyline fill="none" stroke="black" points="1396.41,-840.1 1471.22,-840.1 "/>
<text text-anchor="middle" x="1433.81" y="-823.5" font-family="Courier New" font-size="14.00">150</text>
<polyline fill="none" stroke="black" points="1471.22,-815.3 1471.22,-964.1 "/>
<text text-anchor="middle" x="1571.63" y="-947.5" font-family="Courier New" font-size="14.00">type: variable (bytes)</text>
<polyline fill="none" stroke="black" points="1471.22,-939.3 1672.05,-939.3 "/>
<text text-anchor="middle" x="1571.62" y="-922.7" font-family="Courier New" font-size="14.00">uint256 (32)</text>
<polyline fill="none" stroke="black" points="1471.22,-914.5 1672.05,-914.5 "/>
<text text-anchor="middle" x="1571.62" y="-897.9" font-family="Courier New" font-size="14.00">uint256 (32)</text>
<polyline fill="none" stroke="black" points="1471.22,-889.7 1672.05,-889.7 "/>
<text text-anchor="middle" x="1571.42" y="-873.1" font-family="Courier New" font-size="14.00">&#45;&#45;&#45;&#45; (1440)</text>
<polyline fill="none" stroke="black" points="1471.22,-864.9 1672.05,-864.9 "/>
<text text-anchor="middle" x="1571.62" y="-848.3" font-family="Courier New" font-size="14.00">uint256 (32)</text>
<polyline fill="none" stroke="black" points="1471.22,-840.1 1672.05,-840.1 "/>
<text text-anchor="middle" x="1571.62" y="-823.5" font-family="Courier New" font-size="14.00">uint256 (32)</text>
</g>
<!-- 9&#45;&gt;3 -->
<g id="edge3" class="edge">
<title>9:22&#45;&gt;3</title>
<path fill="none" stroke="black" d="M878.93,-674.1C939.31,-674.1 869.9,-764.87 914.93,-805.1 1042.6,-919.15 1247.32,-929.56 1385.89,-920.7"/>
<polygon fill="black" stroke="black" points="1386.43,-924.17 1396.17,-920 1385.95,-917.18 1386.43,-924.17"/>
</g>
<!-- 4 -->
<g id="node5" class="node">
<title>4</title>
<polygon fill="#f2f2f2" stroke="black" points="1396.41,-622.3 1396.41,-795.9 1672.05,-795.9 1672.05,-622.3 1396.41,-622.3"/>
<text text-anchor="middle" x="1534.23" y="-779.3" font-family="Courier New" font-size="14.00">uint256[49]: __gap &lt;&lt;Array&gt;&gt;</text>
<polyline fill="none" stroke="black" points="1396.41,-771.1 1672.05,-771.1 "/>
<text text-anchor="middle" x="1433.81" y="-754.5" font-family="Courier New" font-size="14.00">slot</text>
<polyline fill="none" stroke="black" points="1396.41,-746.3 1471.22,-746.3 "/>
<text text-anchor="middle" x="1433.81" y="-729.7" font-family="Courier New" font-size="14.00">152</text>
<polyline fill="none" stroke="black" points="1396.41,-721.5 1471.22,-721.5 "/>
<text text-anchor="middle" x="1433.81" y="-704.9" font-family="Courier New" font-size="14.00">153</text>
<polyline fill="none" stroke="black" points="1396.41,-696.7 1471.22,-696.7 "/>
<text text-anchor="middle" x="1433.81" y="-680.1" font-family="Courier New" font-size="14.00">154&#45;198</text>
<polyline fill="none" stroke="black" points="1396.41,-671.9 1471.22,-671.9 "/>
<text text-anchor="middle" x="1433.81" y="-655.3" font-family="Courier New" font-size="14.00">199</text>
<polyline fill="none" stroke="black" points="1396.41,-647.1 1471.22,-647.1 "/>
<text text-anchor="middle" x="1433.81" y="-630.5" font-family="Courier New" font-size="14.00">200</text>
<polyline fill="none" stroke="black" points="1471.22,-622.3 1471.22,-771.1 "/>
<text text-anchor="middle" x="1571.63" y="-754.5" font-family="Courier New" font-size="14.00">type: variable (bytes)</text>
<polyline fill="none" stroke="black" points="1471.22,-746.3 1672.05,-746.3 "/>
<text text-anchor="middle" x="1571.62" y="-729.7" font-family="Courier New" font-size="14.00">uint256 (32)</text>
<polyline fill="none" stroke="black" points="1471.22,-721.5 1672.05,-721.5 "/>
<text text-anchor="middle" x="1571.62" y="-704.9" font-family="Courier New" font-size="14.00">uint256 (32)</text>
<polyline fill="none" stroke="black" points="1471.22,-696.7 1672.05,-696.7 "/>
<text text-anchor="middle" x="1571.42" y="-680.1" font-family="Courier New" font-size="14.00">&#45;&#45;&#45;&#45; (1440)</text>
<polyline fill="none" stroke="black" points="1471.22,-671.9 1672.05,-671.9 "/>
<text text-anchor="middle" x="1571.62" y="-655.3" font-family="Courier New" font-size="14.00">uint256 (32)</text>
<polyline fill="none" stroke="black" points="1471.22,-647.1 1672.05,-647.1 "/>
<text text-anchor="middle" x="1571.62" y="-630.5" font-family="Courier New" font-size="14.00">uint256 (32)</text>
</g>
<!-- 9&#45;&gt;4 -->
<g id="edge4" class="edge">
<title>9:29&#45;&gt;4</title>
<path fill="none" stroke="black" d="M878.93,-625.1C1054.31,-625.1 1253.99,-655.16 1386.15,-679.31"/>
<polygon fill="black" stroke="black" points="1385.87,-682.82 1396.34,-681.19 1387.14,-675.94 1385.87,-682.82"/>
</g>
<!-- 5 -->
<g id="node6" class="node">
<title>5</title>
<polygon fill="#f2f2f2" stroke="black" points="1396.41,-429.3 1396.41,-602.9 1672.05,-602.9 1672.05,-429.3 1396.41,-429.3"/>
<text text-anchor="middle" x="1534.23" y="-586.3" font-family="Courier New" font-size="14.00">uint256[50]: __gap &lt;&lt;Array&gt;&gt;</text>
<polyline fill="none" stroke="black" points="1396.41,-578.1 1672.05,-578.1 "/>
<text text-anchor="middle" x="1433.81" y="-561.5" font-family="Courier New" font-size="14.00">slot</text>
<polyline fill="none" stroke="black" points="1396.41,-553.3 1471.22,-553.3 "/>
<text text-anchor="middle" x="1433.81" y="-536.7" font-family="Courier New" font-size="14.00">201</text>
<polyline fill="none" stroke="black" points="1396.41,-528.5 1471.22,-528.5 "/>
<text text-anchor="middle" x="1433.81" y="-511.9" font-family="Courier New" font-size="14.00">202</text>
<polyline fill="none" stroke="black" points="1396.41,-503.7 1471.22,-503.7 "/>
<text text-anchor="middle" x="1433.81" y="-487.1" font-family="Courier New" font-size="14.00">203&#45;248</text>
<polyline fill="none" stroke="black" points="1396.41,-478.9 1471.22,-478.9 "/>
<text text-anchor="middle" x="1433.81" y="-462.3" font-family="Courier New" font-size="14.00">249</text>
<polyline fill="none" stroke="black" points="1396.41,-454.1 1471.22,-454.1 "/>
<text text-anchor="middle" x="1433.81" y="-437.5" font-family="Courier New" font-size="14.00">250</text>
<polyline fill="none" stroke="black" points="1471.22,-429.3 1471.22,-578.1 "/>
<text text-anchor="middle" x="1571.63" y="-561.5" font-family="Courier New" font-size="14.00">type: variable (bytes)</text>
<polyline fill="none" stroke="black" points="1471.22,-553.3 1672.05,-553.3 "/>
<text text-anchor="middle" x="1571.62" y="-536.7" font-family="Courier New" font-size="14.00">uint256 (32)</text>
<polyline fill="none" stroke="black" points="1471.22,-528.5 1672.05,-528.5 "/>
<text text-anchor="middle" x="1571.62" y="-511.9" font-family="Courier New" font-size="14.00">uint256 (32)</text>
<polyline fill="none" stroke="black" points="1471.22,-503.7 1672.05,-503.7 "/>
<text text-anchor="middle" x="1571.42" y="-487.1" font-family="Courier New" font-size="14.00">&#45;&#45;&#45;&#45; (1472)</text>
<polyline fill="none" stroke="black" points="1471.22,-478.9 1672.05,-478.9 "/>
<text text-anchor="middle" x="1571.62" y="-462.3" font-family="Courier New" font-size="14.00">uint256 (32)</text>
<polyline fill="none" stroke="black" points="1471.22,-454.1 1672.05,-454.1 "/>
<text text-anchor="middle" x="1571.62" y="-437.5" font-family="Courier New" font-size="14.00">uint256 (32)</text>
</g>
<!-- 9&#45;&gt;5 -->
<g id="edge5" class="edge">
<title>9:35&#45;&gt;5</title>
<path fill="none" stroke="black" d="M878.93,-600.1C1054.31,-600.1 1253.99,-570.04 1386.15,-545.89"/>
<polygon fill="black" stroke="black" points="1387.14,-549.26 1396.34,-544.01 1385.87,-542.38 1387.14,-549.26"/>
</g>
<!-- 6 -->
<g id="node7" class="node">
<title>6</title>
<polygon fill="#f2f2f2" stroke="black" points="1396.41,-236.3 1396.41,-409.9 1672.05,-409.9 1672.05,-236.3 1396.41,-236.3"/>
<text text-anchor="middle" x="1534.23" y="-393.3" font-family="Courier New" font-size="14.00">uint256[50]: __gap &lt;&lt;Array&gt;&gt;</text>
<polyline fill="none" stroke="black" points="1396.41,-385.1 1672.05,-385.1 "/>
<text text-anchor="middle" x="1433.81" y="-368.5" font-family="Courier New" font-size="14.00">slot</text>
<polyline fill="none" stroke="black" points="1396.41,-360.3 1471.22,-360.3 "/>
<text text-anchor="middle" x="1433.81" y="-343.7" font-family="Courier New" font-size="14.00">251</text>
<polyline fill="none" stroke="black" points="1396.41,-335.5 1471.22,-335.5 "/>
<text text-anchor="middle" x="1433.81" y="-318.9" font-family="Courier New" font-size="14.00">252</text>
<polyline fill="none" stroke="black" points="1396.41,-310.7 1471.22,-310.7 "/>
<text text-anchor="middle" x="1433.81" y="-294.1" font-family="Courier New" font-size="14.00">253&#45;298</text>
<polyline fill="none" stroke="black" points="1396.41,-285.9 1471.22,-285.9 "/>
<text text-anchor="middle" x="1433.81" y="-269.3" font-family="Courier New" font-size="14.00">299</text>
<polyline fill="none" stroke="black" points="1396.41,-261.1 1471.22,-261.1 "/>
<text text-anchor="middle" x="1433.81" y="-244.5" font-family="Courier New" font-size="14.00">300</text>
<polyline fill="none" stroke="black" points="1471.22,-236.3 1471.22,-385.1 "/>
<text text-anchor="middle" x="1571.63" y="-368.5" font-family="Courier New" font-size="14.00">type: variable (bytes)</text>
<polyline fill="none" stroke="black" points="1471.22,-360.3 1672.05,-360.3 "/>
<text text-anchor="middle" x="1571.62" y="-343.7" font-family="Courier New" font-size="14.00">uint256 (32)</text>
<polyline fill="none" stroke="black" points="1471.22,-335.5 1672.05,-335.5 "/>
<text text-anchor="middle" x="1571.62" y="-318.9" font-family="Courier New" font-size="14.00">uint256 (32)</text>
<polyline fill="none" stroke="black" points="1471.22,-310.7 1672.05,-310.7 "/>
<text text-anchor="middle" x="1571.42" y="-294.1" font-family="Courier New" font-size="14.00">&#45;&#45;&#45;&#45; (1472)</text>
<polyline fill="none" stroke="black" points="1471.22,-285.9 1672.05,-285.9 "/>
<text text-anchor="middle" x="1571.62" y="-269.3" font-family="Courier New" font-size="14.00">uint256 (32)</text>
<polyline fill="none" stroke="black" points="1471.22,-261.1 1672.05,-261.1 "/>
<text text-anchor="middle" x="1571.62" y="-244.5" font-family="Courier New" font-size="14.00">uint256 (32)</text>
</g>
<!-- 9&#45;&gt;6 -->
<g id="edge6" class="edge">
<title>9:41&#45;&gt;6</title>
<path fill="none" stroke="black" d="M878.93,-575.1C949.66,-575.1 863.14,-468.26 914.93,-420.1 1040.59,-303.25 1246.51,-293.65 1385.84,-303.45"/>
<polygon fill="black" stroke="black" points="1385.94,-306.97 1396.17,-304.22 1386.46,-299.99 1385.94,-306.97"/>
</g>
<!-- 7 -->
<g id="node8" class="node">
<title>7</title>
<polygon fill="#f2f2f2" stroke="black" points="914.93,-118.5 914.93,-217.7 2153.52,-217.7 2153.52,-118.5 914.93,-118.5"/>
<text text-anchor="middle" x="1534.23" y="-201.1" font-family="Courier New" font-size="14.00">IShwounsAuctionHouse.AuctionV2 &lt;&lt;Struct&gt;&gt;</text>
<polyline fill="none" stroke="black" points="914.93,-192.9 2153.52,-192.9 "/>
<text text-anchor="middle" x="939.74" y="-176.3" font-family="Courier New" font-size="14.00">slot</text>
<polyline fill="none" stroke="black" points="914.93,-168.1 964.54,-168.1 "/>
<text text-anchor="middle" x="939.74" y="-151.5" font-family="Courier New" font-size="14.00">302</text>
<polyline fill="none" stroke="black" points="914.93,-143.3 964.54,-143.3 "/>
<text text-anchor="middle" x="939.74" y="-126.7" font-family="Courier New" font-size="14.00">303</text>
<polyline fill="none" stroke="black" points="964.54,-118.5 964.54,-192.9 "/>
<text text-anchor="middle" x="1559.03" y="-176.3" font-family="Courier New" font-size="14.00">type: variable (bytes)</text>
<polyline fill="none" stroke="black" points="964.54,-168.1 2153.52,-168.1 "/>
<text text-anchor="middle" x="1161.06" y="-151.5" font-family="Courier New" font-size="14.00">uint128: AuctionV2.amount (16)</text>
<polyline fill="none" stroke="black" points="1357.58,-143.3 1357.58,-168.1 "/>
<text text-anchor="middle" x="1554.1" y="-151.5" font-family="Courier New" font-size="14.00">uint32: AuctionV2.clientId (4)</text>
<polyline fill="none" stroke="black" points="1750.62,-143.3 1750.62,-168.1 "/>
<text text-anchor="middle" x="1951.84" y="-151.5" font-family="Courier New" font-size="14.00">uint96: AuctionV2.shwounId (12)</text>
<polyline fill="none" stroke="black" points="964.54,-143.3 2153.52,-143.3 "/>
<text text-anchor="middle" x="1035.55" y="-126.7" font-family="Courier New" font-size="14.00">unallocated (1)</text>
<polyline fill="none" stroke="black" points="1106.56,-118.5 1106.56,-143.3 "/>
<text text-anchor="middle" x="1227.98" y="-126.7" font-family="Courier New" font-size="14.00">bool: AuctionV2.settled (1)</text>
<polyline fill="none" stroke="black" points="1349.4,-118.5 1349.4,-143.3 "/>
<text text-anchor="middle" x="1483.42" y="-126.7" font-family="Courier New" font-size="14.00">address: AuctionV2.bidder (20)</text>
<polyline fill="none" stroke="black" points="1617.44,-118.5 1617.44,-143.3 "/>
<text text-anchor="middle" x="1747.26" y="-126.7" font-family="Courier New" font-size="14.00">uint40: AuctionV2.endTime (5)</text>
<polyline fill="none" stroke="black" points="1877.08,-118.5 1877.08,-143.3 "/>
<text text-anchor="middle" x="2015.3" y="-126.7" font-family="Courier New" font-size="14.00">uint40: AuctionV2.startTime (5)</text>
</g>
<!-- 9&#45;&gt;7 -->
<g id="edge7" class="edge">
<title>9:52&#45;&gt;7</title>
<path fill="none" stroke="black" d="M878.93,-525.1C945.64,-525.1 867.18,-273.67 914.93,-227.1 915.75,-226.3 916.58,-225.51 917.4,-224.72"/>
<polygon fill="black" stroke="black" points="919.97,-227.12 924.96,-217.77 915.23,-221.96 919.97,-227.12"/>
</g>
<!-- 8 -->
<g id="node9" class="node">
<title>8</title>
<polygon fill="#f2f2f2" stroke="black" points="1208.18,-0.5 1208.18,-99.7 1860.27,-99.7 1860.27,-0.5 1208.18,-0.5"/>
<text text-anchor="middle" x="1534.23" y="-83.1" font-family="Courier New" font-size="14.00">SettlementState &lt;&lt;Struct&gt;&gt;</text>
<polyline fill="none" stroke="black" points="1208.18,-74.9 1860.27,-74.9 "/>
<text text-anchor="middle" x="1241.38" y="-58.3" font-family="Courier New" font-size="14.00">offset</text>
<polyline fill="none" stroke="black" points="1208.18,-50.1 1274.59,-50.1 "/>
<text text-anchor="middle" x="1241.38" y="-33.5" font-family="Courier New" font-size="14.00">0</text>
<polyline fill="none" stroke="black" points="1208.18,-25.3 1274.59,-25.3 "/>
<text text-anchor="middle" x="1241.38" y="-8.7" font-family="Courier New" font-size="14.00">1</text>
<polyline fill="none" stroke="black" points="1274.59,-0.5 1274.59,-74.9 "/>
<text text-anchor="middle" x="1567.43" y="-58.3" font-family="Courier New" font-size="14.00">type: variable (bytes)</text>
<polyline fill="none" stroke="black" points="1274.59,-50.1 1860.27,-50.1 "/>
<text text-anchor="middle" x="1366.6" y="-33.5" font-family="Courier New" font-size="14.00">address: winner (20)</text>
<polyline fill="none" stroke="black" points="1458.61,-25.3 1458.61,-50.1 "/>
<text text-anchor="middle" x="1542.23" y="-33.5" font-family="Courier New" font-size="14.00">uint64: amount (8)</text>
<polyline fill="none" stroke="black" points="1625.84,-25.3 1625.84,-50.1 "/>
<text text-anchor="middle" x="1743.06" y="-33.5" font-family="Courier New" font-size="14.00">uint32: blockTimestamp (4)</text>
<polyline fill="none" stroke="black" points="1274.59,-25.3 1860.27,-25.3 "/>
<text text-anchor="middle" x="1356.8" y="-8.7" font-family="Courier New" font-size="14.00">unallocated (27)</text>
<polyline fill="none" stroke="black" points="1439.01,-0.5 1439.01,-25.3 "/>
<text text-anchor="middle" x="1538.02" y="-8.7" font-family="Courier New" font-size="14.00">uint32: clientId (4)</text>
<polyline fill="none" stroke="black" points="1637.04,-0.5 1637.04,-25.3 "/>
<text text-anchor="middle" x="1748.65" y="-8.7" font-family="Courier New" font-size="14.00">uint8: slotWarmedUp (1)</text>
</g>
<!-- 9&#45;&gt;8 -->
<g id="edge8" class="edge">
<title>9:58&#45;&gt;8</title>
<path fill="none" stroke="black" d="M878.93,-501.1C966.41,-501.1 853.19,-171.07 914.93,-109.1 988.39,-35.38 1094.34,-8.86 1197.84,-4.43"/>
<polygon fill="black" stroke="black" points="1197.98,-7.93 1207.84,-4.07 1197.72,-0.93 1197.98,-7.93"/>
</g>
</g>
</svg>
